<svg width="593" height="180" viewBox="0 0 593 180" fill="none" xmlns="http://www.w3.org/2000/svg">
<rect x="288.5" y="0.5" width="108" height="179" rx="4.5" fill="#C5BEDF"/>
<rect x="288.5" y="0.5" width="108" height="179" rx="4.5" stroke="black"/>
<path d="M319.388 79V68.9785H322.635C323.865 68.9785 324.667 69.0286 325.041 69.1289C325.615 69.2793 326.096 69.6074 326.483 70.1133C326.871 70.6146 327.064 71.264 327.064 72.0615C327.064 72.6768 326.953 73.194 326.729 73.6133C326.506 74.0326 326.221 74.363 325.875 74.6045C325.533 74.8415 325.185 74.9987 324.829 75.0762C324.346 75.1719 323.646 75.2197 322.73 75.2197H321.411V79H319.388ZM321.411 70.6738V73.5176H322.519C323.316 73.5176 323.849 73.4652 324.118 73.3604C324.387 73.2555 324.597 73.0915 324.747 72.8682C324.902 72.6449 324.979 72.3851 324.979 72.0889C324.979 71.7243 324.872 71.4235 324.658 71.1865C324.444 70.9495 324.173 70.8014 323.845 70.7422C323.603 70.6966 323.118 70.6738 322.389 70.6738H321.411ZM330.551 79H328.63V71.7402H330.414V72.7725C330.719 72.2848 330.993 71.9635 331.234 71.8086C331.48 71.6536 331.758 71.5762 332.068 71.5762C332.506 71.5762 332.927 71.6969 333.333 71.9385L332.738 73.6133C332.415 73.4036 332.114 73.2988 331.836 73.2988C331.567 73.2988 331.339 73.374 331.152 73.5244C330.965 73.6702 330.817 73.9368 330.708 74.3242C330.603 74.7116 330.551 75.5228 330.551 76.7578V79ZM333.723 75.2676C333.723 74.6296 333.88 74.012 334.194 73.415C334.509 72.818 334.953 72.3623 335.527 72.0479C336.106 71.7334 336.751 71.5762 337.462 71.5762C338.56 71.5762 339.46 71.9339 340.162 72.6494C340.864 73.3604 341.215 74.2604 341.215 75.3496C341.215 76.4479 340.859 77.3594 340.148 78.084C339.442 78.804 338.551 79.1641 337.476 79.1641C336.81 79.1641 336.174 79.0137 335.568 78.7129C334.967 78.4121 334.509 77.9723 334.194 77.3936C333.88 76.8102 333.723 76.1016 333.723 75.2676ZM335.691 75.3701C335.691 76.0902 335.862 76.6416 336.204 77.0244C336.546 77.4072 336.967 77.5986 337.469 77.5986C337.97 77.5986 338.389 77.4072 338.727 77.0244C339.068 76.6416 339.239 76.0856 339.239 75.3564C339.239 74.6455 339.068 74.0986 338.727 73.7158C338.389 73.333 337.97 73.1416 337.469 73.1416C336.967 73.1416 336.546 73.333 336.204 73.7158C335.862 74.0986 335.691 74.6501 335.691 75.3701ZM346.055 71.7402V73.2715H344.742V76.1973C344.742 76.7897 344.754 77.1361 344.776 77.2363C344.804 77.332 344.861 77.4118 344.947 77.4756C345.038 77.5394 345.148 77.5713 345.275 77.5713C345.453 77.5713 345.711 77.5098 346.048 77.3867L346.212 78.877C345.765 79.0684 345.259 79.1641 344.694 79.1641C344.348 79.1641 344.036 79.1071 343.758 78.9932C343.48 78.8747 343.275 78.7243 343.143 78.542C343.015 78.3551 342.926 78.1045 342.876 77.79C342.835 77.5667 342.814 77.1156 342.814 76.4365V73.2715H341.933V71.7402H342.814V70.2979L344.742 69.1768V71.7402H346.055ZM351.592 76.6895L353.506 77.0107C353.26 77.7126 352.87 78.248 352.337 78.6172C351.808 78.9818 351.145 79.1641 350.348 79.1641C349.085 79.1641 348.151 78.7516 347.545 77.9268C347.066 77.266 346.827 76.432 346.827 75.4248C346.827 74.2217 347.142 73.2806 347.771 72.6016C348.399 71.918 349.195 71.5762 350.156 71.5762C351.236 71.5762 352.089 71.9339 352.713 72.6494C353.337 73.3604 353.636 74.4518 353.608 75.9238H348.796C348.81 76.4935 348.965 76.9378 349.261 77.2568C349.557 77.5713 349.926 77.7285 350.368 77.7285C350.669 77.7285 350.922 77.6465 351.127 77.4824C351.332 77.3184 351.487 77.054 351.592 76.6895ZM351.701 74.748C351.688 74.1921 351.544 73.7705 351.271 73.4834C350.997 73.1917 350.664 73.0459 350.272 73.0459C349.853 73.0459 349.507 73.1986 349.233 73.5039C348.96 73.8092 348.826 74.224 348.83 74.748H351.701ZM355.181 70.7559V68.9785H357.102V70.7559H355.181ZM355.181 79V71.7402H357.102V79H355.181ZM365.681 79H363.76V75.2949C363.76 74.5111 363.719 74.0052 363.637 73.7773C363.555 73.5449 363.42 73.3649 363.233 73.2373C363.051 73.1097 362.83 73.0459 362.57 73.0459C362.238 73.0459 361.939 73.137 361.675 73.3193C361.41 73.5016 361.228 73.7432 361.128 74.0439C361.032 74.3447 360.984 74.9007 360.984 75.7119V79H359.063V71.7402H360.848V72.8066C361.481 71.9863 362.279 71.5762 363.24 71.5762C363.664 71.5762 364.051 71.6536 364.402 71.8086C364.753 71.959 365.018 72.1527 365.195 72.3896C365.378 72.6266 365.503 72.8955 365.571 73.1963C365.644 73.4971 365.681 73.9277 365.681 74.4883V79ZM340.224 87.7402V89.2715H338.911V92.1973C338.911 92.7897 338.923 93.1361 338.945 93.2363C338.973 93.332 339.03 93.4118 339.116 93.4756C339.207 93.5394 339.317 93.5713 339.444 93.5713C339.622 93.5713 339.88 93.5098 340.217 93.3867L340.381 94.877C339.934 95.0684 339.428 95.1641 338.863 95.1641C338.517 95.1641 338.205 95.1071 337.927 94.9932C337.649 94.8747 337.444 94.7243 337.312 94.542C337.184 94.3551 337.095 94.1045 337.045 93.79C337.004 93.5667 336.983 93.1156 336.983 92.4365V89.2715H336.102V87.7402H336.983V86.2979L338.911 85.1768V87.7402H340.224ZM341.112 91.2676C341.112 90.6296 341.27 90.012 341.584 89.415C341.898 88.818 342.343 88.3623 342.917 88.0479C343.496 87.7334 344.141 87.5762 344.852 87.5762C345.95 87.5762 346.85 87.9339 347.552 88.6494C348.254 89.3604 348.604 90.2604 348.604 91.3496C348.604 92.4479 348.249 93.3594 347.538 94.084C346.832 94.804 345.941 95.1641 344.865 95.1641C344.2 95.1641 343.564 95.0137 342.958 94.7129C342.356 94.4121 341.898 93.9723 341.584 93.3936C341.27 92.8102 341.112 92.1016 341.112 91.2676ZM343.081 91.3701C343.081 92.0902 343.252 92.6416 343.594 93.0244C343.936 93.4072 344.357 93.5986 344.858 93.5986C345.36 93.5986 345.779 93.4072 346.116 93.0244C346.458 92.6416 346.629 92.0856 346.629 91.3564C346.629 90.6455 346.458 90.0986 346.116 89.7158C345.779 89.333 345.36 89.1416 344.858 89.1416C344.357 89.1416 343.936 89.333 343.594 89.7158C343.252 90.0986 343.081 90.6501 343.081 91.3701ZM325.663 111V102.674H322.689V100.979H330.653V102.674H327.687V111H325.663ZM330.469 107.268C330.469 106.63 330.626 106.012 330.94 105.415C331.255 104.818 331.699 104.362 332.273 104.048C332.852 103.733 333.497 103.576 334.208 103.576C335.306 103.576 336.206 103.934 336.908 104.649C337.61 105.36 337.961 106.26 337.961 107.35C337.961 108.448 337.605 109.359 336.895 110.084C336.188 110.804 335.297 111.164 334.222 111.164C333.556 111.164 332.921 111.014 332.314 110.713C331.713 110.412 331.255 109.972 330.94 109.394C330.626 108.81 330.469 108.102 330.469 107.268ZM332.438 107.37C332.438 108.09 332.608 108.642 332.95 109.024C333.292 109.407 333.714 109.599 334.215 109.599C334.716 109.599 335.135 109.407 335.473 109.024C335.814 108.642 335.985 108.086 335.985 107.356C335.985 106.646 335.814 106.099 335.473 105.716C335.135 105.333 334.716 105.142 334.215 105.142C333.714 105.142 333.292 105.333 332.95 105.716C332.608 106.099 332.438 106.65 332.438 107.37ZM339.403 111V100.979H341.324V106.297L343.573 103.74H345.938L343.457 106.393L346.116 111H344.045L342.22 107.739L341.324 108.676V111H339.403ZM351.469 108.689L353.383 109.011C353.137 109.713 352.747 110.248 352.214 110.617C351.685 110.982 351.022 111.164 350.225 111.164C348.962 111.164 348.028 110.752 347.422 109.927C346.943 109.266 346.704 108.432 346.704 107.425C346.704 106.222 347.019 105.281 347.647 104.602C348.276 103.918 349.072 103.576 350.033 103.576C351.113 103.576 351.965 103.934 352.59 104.649C353.214 105.36 353.513 106.452 353.485 107.924H348.673C348.687 108.493 348.841 108.938 349.138 109.257C349.434 109.571 349.803 109.729 350.245 109.729C350.546 109.729 350.799 109.646 351.004 109.482C351.209 109.318 351.364 109.054 351.469 108.689ZM351.578 106.748C351.564 106.192 351.421 105.771 351.147 105.483C350.874 105.192 350.541 105.046 350.149 105.046C349.73 105.046 349.384 105.199 349.11 105.504C348.837 105.809 348.702 106.224 348.707 106.748H351.578ZM361.661 111H359.74V107.295C359.74 106.511 359.699 106.005 359.617 105.777C359.535 105.545 359.401 105.365 359.214 105.237C359.032 105.11 358.811 105.046 358.551 105.046C358.218 105.046 357.92 105.137 357.655 105.319C357.391 105.502 357.209 105.743 357.108 106.044C357.013 106.345 356.965 106.901 356.965 107.712V111H355.044V103.74H356.828V104.807C357.462 103.986 358.259 103.576 359.221 103.576C359.645 103.576 360.032 103.654 360.383 103.809C360.734 103.959 360.998 104.153 361.176 104.39C361.358 104.627 361.483 104.896 361.552 105.196C361.625 105.497 361.661 105.928 361.661 106.488V111Z" fill="black"/>
<rect x="0.5" y="38.5" width="105" height="27" rx="2.5" fill="#EAC293"/>
<rect x="0.5" y="38.5" width="105" height="27" rx="2.5" stroke="black"/>
<rect x="4" y="42" width="20" height="20" rx="2" fill="white"/>
<path d="M10.4492 56V47.4102H16.6602V48.4238H11.5859V51.0547H16.3379V52.0625H11.5859V54.9863H16.8594V56H10.4492Z" fill="black"/>
<rect x="30" y="42" width="20" height="20" rx="2" fill="white"/>
<path d="M37.3789 56V47.4102H38.5156V54.9863H42.7461V56H37.3789Z" fill="black"/>
<rect x="56" y="42" width="20" height="20" rx="2" fill="white"/>
<path d="M65.1191 56V47.4102H66.2559V56H65.1191Z" fill="black"/>
<rect x="82" y="42" width="20" height="20" rx="2" fill="white"/>
<path d="M88.0391 53.2402L89.1113 53.1465C89.1621 53.5762 89.2793 53.9297 89.4629 54.207C89.6504 54.4805 89.9395 54.7031 90.3301 54.875C90.7207 55.043 91.1602 55.127 91.6484 55.127C92.082 55.127 92.4648 55.0625 92.7969 54.9336C93.1289 54.8047 93.375 54.6289 93.5352 54.4062C93.6992 54.1797 93.7812 53.9336 93.7812 53.668C93.7812 53.3984 93.7031 53.1641 93.5469 52.9648C93.3906 52.7617 93.1328 52.5918 92.7734 52.4551C92.543 52.3652 92.0332 52.2266 91.2441 52.0391C90.4551 51.8477 89.9023 51.668 89.5859 51.5C89.1758 51.2852 88.8691 51.0195 88.666 50.7031C88.4668 50.3828 88.3672 50.0254 88.3672 49.6309C88.3672 49.1973 88.4902 48.793 88.7363 48.418C88.9824 48.0391 89.3418 47.752 89.8145 47.5566C90.2871 47.3613 90.8125 47.2637 91.3906 47.2637C92.0273 47.2637 92.5879 47.3672 93.0723 47.5742C93.5605 47.7773 93.9355 48.0781 94.1973 48.4766C94.459 48.875 94.5996 49.3262 94.6191 49.8301L93.5293 49.9121C93.4707 49.3691 93.2715 48.959 92.9316 48.6816C92.5957 48.4043 92.0977 48.2656 91.4375 48.2656C90.75 48.2656 90.248 48.3926 89.9316 48.6465C89.6191 48.8965 89.4629 49.1992 89.4629 49.5547C89.4629 49.8633 89.5742 50.1172 89.7969 50.3164C90.0156 50.5156 90.5859 50.7207 91.5078 50.9316C92.4336 51.1387 93.0684 51.3203 93.4121 51.4766C93.9121 51.707 94.2812 52 94.5195 52.3555C94.7578 52.707 94.877 53.1133 94.877 53.5742C94.877 54.0312 94.7461 54.4629 94.4844 54.8691C94.2227 55.2715 93.8457 55.5859 93.3535 55.8125C92.8652 56.0352 92.3145 56.1465 91.7012 56.1465C90.9238 56.1465 90.2715 56.0332 89.7441 55.8066C89.2207 55.5801 88.8086 55.2402 88.5078 54.7871C88.2109 54.3301 88.0547 53.8145 88.0391 53.2402Z" fill="black"/>
<rect x="472.5" y="39.5" width="45" height="25" rx="2.5" fill="#8EBEC9"/>
<rect x="472.5" y="39.5" width="45" height="25" rx="2.5" stroke="black"/>
<rect x="476" y="43" width="38" height="18" rx="2" fill="white"/>
<path d="M481.381 53.4219V52.3613H484.621V53.4219H481.381ZM485.494 51.7637C485.494 50.748 485.598 49.9316 485.805 49.3145C486.016 48.6934 486.326 48.2148 486.736 47.8789C487.15 47.543 487.67 47.375 488.295 47.375C488.756 47.375 489.16 47.4688 489.508 47.6562C489.855 47.8398 490.143 48.1074 490.369 48.459C490.596 48.8066 490.773 49.2324 490.902 49.7363C491.031 50.2363 491.096 50.9121 491.096 51.7637C491.096 52.7715 490.992 53.5859 490.785 54.207C490.578 54.8242 490.268 55.3027 489.854 55.6426C489.443 55.9785 488.924 56.1465 488.295 56.1465C487.467 56.1465 486.816 55.8496 486.344 55.2559C485.777 54.541 485.494 53.377 485.494 51.7637ZM486.578 51.7637C486.578 53.1738 486.742 54.1133 487.07 54.582C487.402 55.0469 487.811 55.2793 488.295 55.2793C488.779 55.2793 489.186 55.0449 489.514 54.5762C489.846 54.1074 490.012 53.1699 490.012 51.7637C490.012 50.3496 489.846 49.4102 489.514 48.9453C489.186 48.4805 488.775 48.248 488.283 48.248C487.799 48.248 487.412 48.4531 487.123 48.8633C486.76 49.3867 486.578 50.3535 486.578 51.7637ZM492.766 56V54.7988H493.967V56H492.766ZM501.057 54.9863V56H495.379C495.371 55.7461 495.412 55.502 495.502 55.2676C495.646 54.8809 495.877 54.5 496.193 54.125C496.514 53.75 496.975 53.3164 497.576 52.8242C498.51 52.0586 499.141 51.4531 499.469 51.0078C499.797 50.5586 499.961 50.1348 499.961 49.7363C499.961 49.3184 499.811 48.9668 499.51 48.6816C499.213 48.3926 498.824 48.248 498.344 48.248C497.836 48.248 497.43 48.4004 497.125 48.7051C496.82 49.0098 496.666 49.4316 496.662 49.9707L495.578 49.8594C495.652 49.0508 495.932 48.4355 496.416 48.0137C496.9 47.5879 497.551 47.375 498.367 47.375C499.191 47.375 499.844 47.6035 500.324 48.0605C500.805 48.5176 501.045 49.084 501.045 49.7598C501.045 50.1035 500.975 50.4414 500.834 50.7734C500.693 51.1055 500.459 51.4551 500.131 51.8223C499.807 52.1895 499.266 52.6934 498.508 53.334C497.875 53.8652 497.469 54.2266 497.289 54.418C497.109 54.6055 496.961 54.7949 496.844 54.9863H501.057ZM502.352 54.0137L503.365 53.9199C503.451 54.3965 503.615 54.7422 503.857 54.957C504.1 55.1719 504.41 55.2793 504.789 55.2793C505.113 55.2793 505.396 55.2051 505.639 55.0566C505.885 54.9082 506.086 54.7109 506.242 54.4648C506.398 54.2148 506.529 53.8789 506.635 53.457C506.74 53.0352 506.793 52.6055 506.793 52.168C506.793 52.1211 506.791 52.0508 506.787 51.957C506.576 52.293 506.287 52.5664 505.92 52.7773C505.557 52.9844 505.162 53.0879 504.736 53.0879C504.025 53.0879 503.424 52.8301 502.932 52.3145C502.439 51.7988 502.193 51.1191 502.193 50.2754C502.193 49.4043 502.449 48.7031 502.961 48.1719C503.477 47.6406 504.121 47.375 504.895 47.375C505.453 47.375 505.963 47.5254 506.424 47.8262C506.889 48.127 507.24 48.5566 507.479 49.1152C507.721 49.6699 507.842 50.4746 507.842 51.5293C507.842 52.627 507.723 53.502 507.484 54.1543C507.246 54.8027 506.891 55.2969 506.418 55.6367C505.949 55.9766 505.398 56.1465 504.766 56.1465C504.094 56.1465 503.545 55.9609 503.119 55.5898C502.693 55.2148 502.438 54.6895 502.352 54.0137ZM506.67 50.2227C506.67 49.6172 506.508 49.1367 506.184 48.7812C505.863 48.4258 505.477 48.248 505.023 48.248C504.555 48.248 504.146 48.4395 503.799 48.8223C503.451 49.2051 503.277 49.7012 503.277 50.3105C503.277 50.8574 503.441 51.3027 503.77 51.6465C504.102 51.9863 504.51 52.1562 504.994 52.1562C505.482 52.1562 505.883 51.9863 506.195 51.6465C506.512 51.3027 506.67 50.8281 506.67 50.2227Z" fill="black"/>
<rect x="472.5" y="153.5" width="41" height="25" rx="2.5" fill="#8EBEC9"/>
<rect x="472.5" y="153.5" width="41" height="25" rx="2.5" stroke="black"/>
<rect x="476" y="157" width="34" height="18" rx="2" fill="white"/>
<path d="M487.041 168.986V170H481.363C481.355 169.746 481.396 169.502 481.486 169.268C481.631 168.881 481.861 168.5 482.178 168.125C482.498 167.75 482.959 167.316 483.561 166.824C484.494 166.059 485.125 165.453 485.453 165.008C485.781 164.559 485.945 164.135 485.945 163.736C485.945 163.318 485.795 162.967 485.494 162.682C485.197 162.393 484.809 162.248 484.328 162.248C483.82 162.248 483.414 162.4 483.109 162.705C482.805 163.01 482.65 163.432 482.646 163.971L481.562 163.859C481.637 163.051 481.916 162.436 482.4 162.014C482.885 161.588 483.535 161.375 484.352 161.375C485.176 161.375 485.828 161.604 486.309 162.061C486.789 162.518 487.029 163.084 487.029 163.76C487.029 164.104 486.959 164.441 486.818 164.773C486.678 165.105 486.443 165.455 486.115 165.822C485.791 166.189 485.25 166.693 484.492 167.334C483.859 167.865 483.453 168.227 483.273 168.418C483.094 168.605 482.945 168.795 482.828 168.986H487.041ZM488.77 170V168.799H489.971V170H488.77ZM497.061 168.986V170H491.383C491.375 169.746 491.416 169.502 491.506 169.268C491.65 168.881 491.881 168.5 492.197 168.125C492.518 167.75 492.979 167.316 493.58 166.824C494.514 166.059 495.145 165.453 495.473 165.008C495.801 164.559 495.965 164.135 495.965 163.736C495.965 163.318 495.814 162.967 495.514 162.682C495.217 162.393 494.828 162.248 494.348 162.248C493.84 162.248 493.434 162.4 493.129 162.705C492.824 163.01 492.67 163.432 492.666 163.971L491.582 163.859C491.656 163.051 491.936 162.436 492.42 162.014C492.904 161.588 493.555 161.375 494.371 161.375C495.195 161.375 495.848 161.604 496.328 162.061C496.809 162.518 497.049 163.084 497.049 163.76C497.049 164.104 496.979 164.441 496.838 164.773C496.697 165.105 496.463 165.455 496.135 165.822C495.811 166.189 495.27 166.693 494.512 167.334C493.879 167.865 493.473 168.227 493.293 168.418C493.113 168.605 492.965 168.795 492.848 168.986H497.061ZM502.17 170H501.115V163.279C500.861 163.521 500.527 163.764 500.113 164.006C499.703 164.248 499.334 164.43 499.006 164.551V163.531C499.596 163.254 500.111 162.918 500.553 162.523C500.994 162.129 501.307 161.746 501.49 161.375H502.17V170Z" fill="black"/>
<rect x="472.5" y="115.5" width="120" height="25" rx="2.5" fill="#8EBEC9"/>
<rect x="472.5" y="115.5" width="120" height="25" rx="2.5" stroke="black"/>
<rect x="476" y="119" width="113" height="18" rx="2" fill="white"/>
<path d="M481.891 132V123.41H483.602L485.635 129.492C485.822 130.059 485.959 130.482 486.045 130.764C486.143 130.451 486.295 129.992 486.502 129.387L488.559 123.41H490.088V132H488.992V124.811L486.496 132H485.471L482.986 124.688V132H481.891ZM491.793 124.623V123.41H492.848V124.623H491.793ZM491.793 132V125.777H492.848V132H491.793ZM496.762 131.057L496.914 131.988C496.617 132.051 496.352 132.082 496.117 132.082C495.734 132.082 495.438 132.021 495.227 131.9C495.016 131.779 494.867 131.621 494.781 131.426C494.695 131.227 494.652 130.811 494.652 130.178V126.598H493.879V125.777H494.652V124.236L495.701 123.604V125.777H496.762V126.598H495.701V130.236C495.701 130.537 495.719 130.73 495.754 130.816C495.793 130.902 495.854 130.971 495.936 131.021C496.021 131.072 496.143 131.098 496.299 131.098C496.416 131.098 496.57 131.084 496.762 131.057ZM497.406 128.889C497.406 127.736 497.727 126.883 498.367 126.328C498.902 125.867 499.555 125.637 500.324 125.637C501.18 125.637 501.879 125.918 502.422 126.48C502.965 127.039 503.236 127.812 503.236 128.801C503.236 129.602 503.115 130.232 502.873 130.693C502.635 131.15 502.285 131.506 501.824 131.76C501.367 132.014 500.867 132.141 500.324 132.141C499.453 132.141 498.748 131.861 498.209 131.303C497.674 130.744 497.406 129.939 497.406 128.889ZM498.49 128.889C498.49 129.686 498.664 130.283 499.012 130.682C499.359 131.076 499.797 131.273 500.324 131.273C500.848 131.273 501.283 131.074 501.631 130.676C501.979 130.277 502.152 129.67 502.152 128.854C502.152 128.084 501.977 127.502 501.625 127.107C501.277 126.709 500.844 126.51 500.324 126.51C499.797 126.51 499.359 126.707 499.012 127.102C498.664 127.496 498.49 128.092 498.49 128.889ZM508.539 129.721L509.576 129.855C509.463 130.57 509.172 131.131 508.703 131.537C508.238 131.939 507.666 132.141 506.986 132.141C506.135 132.141 505.449 131.863 504.93 131.309C504.414 130.75 504.156 129.951 504.156 128.912C504.156 128.24 504.268 127.652 504.49 127.148C504.713 126.645 505.051 126.268 505.504 126.018C505.961 125.764 506.457 125.637 506.992 125.637C507.668 125.637 508.221 125.809 508.65 126.152C509.08 126.492 509.355 126.977 509.477 127.605L508.451 127.764C508.354 127.346 508.18 127.031 507.93 126.82C507.684 126.609 507.385 126.504 507.033 126.504C506.502 126.504 506.07 126.695 505.738 127.078C505.406 127.457 505.24 128.059 505.24 128.883C505.24 129.719 505.4 130.326 505.721 130.705C506.041 131.084 506.459 131.273 506.975 131.273C507.389 131.273 507.734 131.146 508.012 130.893C508.289 130.639 508.465 130.248 508.539 129.721ZM510.479 132V123.41H511.533V126.492C512.025 125.922 512.646 125.637 513.396 125.637C513.857 125.637 514.258 125.729 514.598 125.912C514.938 126.092 515.18 126.342 515.324 126.662C515.473 126.982 515.547 127.447 515.547 128.057V132H514.492V128.057C514.492 127.529 514.377 127.146 514.146 126.908C513.92 126.666 513.598 126.545 513.18 126.545C512.867 126.545 512.572 126.627 512.295 126.791C512.021 126.951 511.826 127.17 511.709 127.447C511.592 127.725 511.533 128.107 511.533 128.596V132H510.479ZM516.766 128.889C516.766 127.736 517.086 126.883 517.727 126.328C518.262 125.867 518.914 125.637 519.684 125.637C520.539 125.637 521.238 125.918 521.781 126.48C522.324 127.039 522.596 127.812 522.596 128.801C522.596 129.602 522.475 130.232 522.232 130.693C521.994 131.15 521.645 131.506 521.184 131.76C520.727 132.014 520.227 132.141 519.684 132.141C518.812 132.141 518.107 131.861 517.568 131.303C517.033 130.744 516.766 129.939 516.766 128.889ZM517.85 128.889C517.85 129.686 518.023 130.283 518.371 130.682C518.719 131.076 519.156 131.273 519.684 131.273C520.207 131.273 520.643 131.074 520.99 130.676C521.338 130.277 521.512 129.67 521.512 128.854C521.512 128.084 521.336 127.502 520.984 127.107C520.637 126.709 520.203 126.51 519.684 126.51C519.156 126.51 518.719 126.707 518.371 127.102C518.023 127.496 517.85 128.092 517.85 128.889ZM523.838 132V125.777H524.787V126.662C525.244 125.979 525.904 125.637 526.768 125.637C527.143 125.637 527.486 125.705 527.799 125.842C528.115 125.975 528.352 126.15 528.508 126.369C528.664 126.588 528.773 126.848 528.836 127.148C528.875 127.344 528.895 127.686 528.895 128.174V132H527.84V128.215C527.84 127.785 527.799 127.465 527.717 127.254C527.635 127.039 527.488 126.869 527.277 126.744C527.07 126.615 526.826 126.551 526.545 126.551C526.096 126.551 525.707 126.693 525.379 126.979C525.055 127.264 524.893 127.805 524.893 128.602V132H523.838ZM534.555 132V131.215C534.16 131.832 533.58 132.141 532.814 132.141C532.318 132.141 531.861 132.004 531.443 131.73C531.029 131.457 530.707 131.076 530.477 130.588C530.25 130.096 530.137 129.531 530.137 128.895C530.137 128.273 530.24 127.711 530.447 127.207C530.654 126.699 530.965 126.311 531.379 126.041C531.793 125.771 532.256 125.637 532.768 125.637C533.143 125.637 533.477 125.717 533.77 125.877C534.062 126.033 534.301 126.238 534.484 126.492V123.41H535.533V132H534.555ZM531.221 128.895C531.221 129.691 531.389 130.287 531.725 130.682C532.061 131.076 532.457 131.273 532.914 131.273C533.375 131.273 533.766 131.086 534.086 130.711C534.41 130.332 534.572 129.756 534.572 128.982C534.572 128.131 534.408 127.506 534.08 127.107C533.752 126.709 533.348 126.51 532.867 126.51C532.398 126.51 532.006 126.701 531.689 127.084C531.377 127.467 531.221 128.07 531.221 128.895ZM537.186 132V125.777H538.135V126.721C538.377 126.279 538.6 125.988 538.803 125.848C539.01 125.707 539.236 125.637 539.482 125.637C539.838 125.637 540.199 125.75 540.566 125.977L540.203 126.955C539.945 126.803 539.688 126.727 539.43 126.727C539.199 126.727 538.992 126.797 538.809 126.938C538.625 127.074 538.494 127.266 538.416 127.512C538.299 127.887 538.24 128.297 538.24 128.742V132H537.186ZM541.199 124.623V123.41H542.254V124.623H541.199ZM541.199 132V125.777H542.254V132H541.199ZM543.473 128.889C543.473 127.736 543.793 126.883 544.434 126.328C544.969 125.867 545.621 125.637 546.391 125.637C547.246 125.637 547.945 125.918 548.488 126.48C549.031 127.039 549.303 127.812 549.303 128.801C549.303 129.602 549.182 130.232 548.939 130.693C548.701 131.15 548.352 131.506 547.891 131.76C547.434 132.014 546.934 132.141 546.391 132.141C545.52 132.141 544.814 131.861 544.275 131.303C543.74 130.744 543.473 129.939 543.473 128.889ZM544.557 128.889C544.557 129.686 544.73 130.283 545.078 130.682C545.426 131.076 545.863 131.273 546.391 131.273C546.914 131.273 547.35 131.074 547.697 130.676C548.045 130.277 548.219 129.67 548.219 128.854C548.219 128.084 548.043 127.502 547.691 127.107C547.344 126.709 546.91 126.51 546.391 126.51C545.863 126.51 545.426 126.707 545.078 127.102C544.73 127.496 544.557 128.092 544.557 128.889ZM550.545 132V125.777H551.494V126.662C551.951 125.979 552.611 125.637 553.475 125.637C553.85 125.637 554.193 125.705 554.506 125.842C554.822 125.975 555.059 126.15 555.215 126.369C555.371 126.588 555.48 126.848 555.543 127.148C555.582 127.344 555.602 127.686 555.602 128.174V132H554.547V128.215C554.547 127.785 554.506 127.465 554.424 127.254C554.342 127.039 554.195 126.869 553.984 126.744C553.777 126.615 553.533 126.551 553.252 126.551C552.803 126.551 552.414 126.693 552.086 126.979C551.762 127.264 551.6 127.805 551.6 128.602V132H550.545ZM557.5 132V130.799H558.701V132C558.701 132.441 558.623 132.797 558.467 133.066C558.311 133.34 558.062 133.551 557.723 133.699L557.43 133.248C557.652 133.15 557.816 133.006 557.922 132.814C558.027 132.627 558.086 132.355 558.098 132H557.5ZM567.584 132H566.529V125.279C566.275 125.521 565.941 125.764 565.527 126.006C565.117 126.248 564.748 126.43 564.42 126.551V125.531C565.01 125.254 565.525 124.918 565.967 124.523C566.408 124.129 566.721 123.746 566.904 123.375H567.584V132ZM570.291 127.764C570.291 126.748 570.395 125.932 570.602 125.314C570.812 124.693 571.123 124.215 571.533 123.879C571.947 123.543 572.467 123.375 573.092 123.375C573.553 123.375 573.957 123.469 574.305 123.656C574.652 123.84 574.939 124.107 575.166 124.459C575.393 124.807 575.57 125.232 575.699 125.736C575.828 126.236 575.893 126.912 575.893 127.764C575.893 128.771 575.789 129.586 575.582 130.207C575.375 130.824 575.064 131.303 574.65 131.643C574.24 131.979 573.721 132.146 573.092 132.146C572.264 132.146 571.613 131.85 571.141 131.256C570.574 130.541 570.291 129.377 570.291 127.764ZM571.375 127.764C571.375 129.174 571.539 130.113 571.867 130.582C572.199 131.047 572.607 131.279 573.092 131.279C573.576 131.279 573.982 131.045 574.311 130.576C574.643 130.107 574.809 129.17 574.809 127.764C574.809 126.35 574.643 125.41 574.311 124.945C573.982 124.48 573.572 124.248 573.08 124.248C572.596 124.248 572.209 124.453 571.92 124.863C571.557 125.387 571.375 126.354 571.375 127.764ZM578.594 127.342C578.156 127.182 577.832 126.953 577.621 126.656C577.41 126.359 577.305 126.004 577.305 125.59C577.305 124.965 577.529 124.439 577.979 124.014C578.428 123.588 579.025 123.375 579.771 123.375C580.521 123.375 581.125 123.594 581.582 124.031C582.039 124.465 582.268 124.994 582.268 125.619C582.268 126.018 582.162 126.365 581.951 126.662C581.744 126.955 581.428 127.182 581.002 127.342C581.529 127.514 581.93 127.791 582.203 128.174C582.48 128.557 582.619 129.014 582.619 129.545C582.619 130.279 582.359 130.896 581.84 131.396C581.32 131.896 580.637 132.146 579.789 132.146C578.941 132.146 578.258 131.896 577.738 131.396C577.219 130.893 576.959 130.266 576.959 129.516C576.959 128.957 577.1 128.49 577.381 128.115C577.666 127.736 578.07 127.479 578.594 127.342ZM578.383 125.555C578.383 125.961 578.514 126.293 578.775 126.551C579.037 126.809 579.377 126.938 579.795 126.938C580.201 126.938 580.533 126.811 580.791 126.557C581.053 126.299 581.184 125.984 581.184 125.613C581.184 125.227 581.049 124.902 580.779 124.641C580.514 124.375 580.182 124.242 579.783 124.242C579.381 124.242 579.047 124.371 578.781 124.629C578.516 124.887 578.383 125.195 578.383 125.555ZM578.043 129.521C578.043 129.822 578.113 130.113 578.254 130.395C578.398 130.676 578.611 130.895 578.893 131.051C579.174 131.203 579.477 131.279 579.801 131.279C580.305 131.279 580.721 131.117 581.049 130.793C581.377 130.469 581.541 130.057 581.541 129.557C581.541 129.049 581.371 128.629 581.031 128.297C580.695 127.965 580.273 127.799 579.766 127.799C579.27 127.799 578.857 127.963 578.529 128.291C578.205 128.619 578.043 129.029 578.043 129.521Z" fill="black"/>
<rect x="0.5" y="0.5" width="230" height="27" rx="2.5" fill="#EAC293"/>
<rect x="0.5" y="0.5" width="230" height="27" rx="2.5" stroke="black"/>
<rect x="4" y="4" width="20" height="20" rx="2" fill="white"/>
<path d="M16.4355 17.0801C16.9629 17.4434 17.4492 17.709 17.8945 17.877L17.5605 18.668C16.9434 18.4453 16.3281 18.0938 15.7148 17.6133C15.0781 17.9688 14.375 18.1465 13.6055 18.1465C12.8281 18.1465 12.123 17.959 11.4902 17.584C10.8574 17.209 10.3691 16.6816 10.0254 16.002C9.68555 15.3223 9.51562 14.5566 9.51562 13.7051C9.51562 12.8574 9.6875 12.0859 10.0312 11.3906C10.375 10.6953 10.8633 10.166 11.4961 9.80273C12.1328 9.43945 12.8438 9.25781 13.6289 9.25781C14.4219 9.25781 15.1367 9.44727 15.7734 9.82617C16.4102 10.2012 16.8945 10.7285 17.2266 11.4082C17.5625 12.084 17.7305 12.8477 17.7305 13.6992C17.7305 14.4062 17.623 15.043 17.4082 15.6094C17.1934 16.1719 16.8691 16.6621 16.4355 17.0801ZM13.9336 15.627C14.5898 15.8105 15.1309 16.084 15.5566 16.4473C16.2246 15.8379 16.5586 14.9219 16.5586 13.6992C16.5586 13.0039 16.4395 12.3965 16.2012 11.877C15.9668 11.3574 15.6211 10.9551 15.1641 10.6699C14.7109 10.3809 14.2012 10.2363 13.6348 10.2363C12.7871 10.2363 12.084 10.5273 11.5254 11.1094C10.9668 11.6875 10.6875 12.5527 10.6875 13.7051C10.6875 14.8223 10.9629 15.6797 11.5137 16.2773C12.0684 16.875 12.7754 17.1738 13.6348 17.1738C14.041 17.1738 14.4238 17.0977 14.7832 16.9453C14.4277 16.7148 14.0527 16.5508 13.6582 16.4531L13.9336 15.627Z" fill="black"/>
<rect x="30" y="4" width="20" height="20" rx="2" fill="white"/>
<path d="M35.4824 18L38.7812 9.41016H40.0059L43.5215 18H42.2266L41.2246 15.3984H37.6328L36.6895 18H35.4824ZM37.9609 14.4727H40.873L39.9766 12.0938C39.7031 11.3711 39.5 10.7773 39.3672 10.3125C39.2578 10.8633 39.1035 11.4102 38.9043 11.9531L37.9609 14.4727Z" fill="black"/>
<rect x="56" y="4" width="20" height="20" rx="2" fill="white"/>
<path d="M62.4492 18V9.41016H68.6602V10.4238H63.5859V13.0547H68.3379V14.0625H63.5859V16.9863H68.8594V18H62.4492Z" fill="black"/>
<rect x="82" y="4" width="20" height="20" rx="2" fill="white"/>
<path d="M91.1191 18V9.41016H92.2559V18H91.1191Z" fill="black"/>
<path d="M115.5 9.625V18.375" stroke="black" stroke-width="1.5" stroke-linecap="round" stroke-linejoin="round"/>
<path d="M111.125 14H119.875" stroke="black" stroke-width="1.5" stroke-linecap="round" stroke-linejoin="round"/>
<rect x="129" y="4" width="20" height="20" rx="2" fill="white"/>
<path d="M135.449 18V9.41016H141.66V10.4238H136.586V13.0547H141.338V14.0625H136.586V16.9863H141.859V18H135.449Z" fill="black"/>
<rect x="155" y="4" width="20" height="20" rx="2" fill="white"/>
<path d="M161.984 18V9.41016H167.779V10.4238H163.121V13.084H167.152V14.0977H163.121V18H161.984Z" fill="black"/>
<rect x="181" y="4" width="20" height="20" rx="2" fill="white"/>
<path d="M187.449 18V9.41016H193.66V10.4238H188.586V13.0547H193.338V14.0625H188.586V16.9863H193.859V18H187.449Z" fill="black"/>
<rect x="207" y="4" width="20" height="20" rx="2" fill="white"/>
<path d="M216.119 18V9.41016H217.256V18H216.119Z" fill="black"/>
<rect x="0.5" y="152.5" width="228" height="27" rx="2.5" fill="#EAC293"/>
<rect x="0.5" y="152.5" width="228" height="27" rx="2.5" stroke="black"/>
<rect x="4" y="156" width="20" height="20" rx="2" fill="white"/>
<path d="M10.4258 170V161.41H13.3848C14.0527 161.41 14.5625 161.451 14.9141 161.533C15.4062 161.646 15.8262 161.852 16.1738 162.148C16.627 162.531 16.9648 163.021 17.1875 163.619C17.4141 164.213 17.5273 164.893 17.5273 165.658C17.5273 166.311 17.4512 166.889 17.2988 167.393C17.1465 167.896 16.9512 168.314 16.7129 168.646C16.4746 168.975 16.2129 169.234 15.9277 169.426C15.6465 169.613 15.3047 169.756 14.9023 169.854C14.5039 169.951 14.0449 170 13.5254 170H10.4258ZM11.5625 168.986H13.3965C13.9629 168.986 14.4062 168.934 14.7266 168.828C15.0508 168.723 15.3086 168.574 15.5 168.383C15.7695 168.113 15.9785 167.752 16.127 167.299C16.2793 166.842 16.3555 166.289 16.3555 165.641C16.3555 164.742 16.207 164.053 15.9102 163.572C15.6172 163.088 15.2598 162.764 14.8379 162.6C14.5332 162.482 14.043 162.424 13.3672 162.424H11.5625V168.986Z" fill="black"/>
<rect x="30" y="156" width="20" height="20" rx="2" fill="white"/>
<path d="M42.4355 169.08C42.9629 169.443 43.4492 169.709 43.8945 169.877L43.5605 170.668C42.9434 170.445 42.3281 170.094 41.7148 169.613C41.0781 169.969 40.375 170.146 39.6055 170.146C38.8281 170.146 38.123 169.959 37.4902 169.584C36.8574 169.209 36.3691 168.682 36.0254 168.002C35.6855 167.322 35.5156 166.557 35.5156 165.705C35.5156 164.857 35.6875 164.086 36.0312 163.391C36.375 162.695 36.8633 162.166 37.4961 161.803C38.1328 161.439 38.8438 161.258 39.6289 161.258C40.4219 161.258 41.1367 161.447 41.7734 161.826C42.4102 162.201 42.8945 162.729 43.2266 163.408C43.5625 164.084 43.7305 164.848 43.7305 165.699C43.7305 166.406 43.623 167.043 43.4082 167.609C43.1934 168.172 42.8691 168.662 42.4355 169.08ZM39.9336 167.627C40.5898 167.811 41.1309 168.084 41.5566 168.447C42.2246 167.838 42.5586 166.922 42.5586 165.699C42.5586 165.004 42.4395 164.396 42.2012 163.877C41.9668 163.357 41.6211 162.955 41.1641 162.67C40.7109 162.381 40.2012 162.236 39.6348 162.236C38.7871 162.236 38.084 162.527 37.5254 163.109C36.9668 163.688 36.6875 164.553 36.6875 165.705C36.6875 166.822 36.9629 167.68 37.5137 168.277C38.0684 168.875 38.7754 169.174 39.6348 169.174C40.041 169.174 40.4238 169.098 40.7832 168.945C40.4277 168.715 40.0527 168.551 39.6582 168.453L39.9336 167.627Z" fill="black"/>
<rect x="56" y="156" width="20" height="20" rx="2" fill="white"/>
<path d="M62.3789 170V161.41H63.5156V165.67L67.7812 161.41H69.3223L65.7188 164.891L69.4805 170H67.9805L64.9219 165.652L63.5156 167.023V170H62.3789Z" fill="black"/>
<rect x="82" y="156" width="20" height="20" rx="2" fill="white"/>
<path d="M88.4141 170V161.41H89.5801L94.0918 168.154V161.41H95.1816V170H94.0156L89.5039 163.25V170H88.4141Z" fill="black"/>
<path d="M115.5 161.625V170.375" stroke="black" stroke-width="1.5" stroke-linecap="round" stroke-linejoin="round"/>
<path d="M111.125 166H119.875" stroke="black" stroke-width="1.5" stroke-linecap="round" stroke-linejoin="round"/>
<rect x="129" y="156" width="96" height="20" rx="2" fill="white"/>
<path d="M134.914 170V161.41H136.08L140.592 168.154V161.41H141.682V170H140.516L136.004 163.25V170H134.914ZM149.727 166.988L150.863 167.275C150.625 168.209 150.195 168.922 149.574 169.414C148.957 169.902 148.201 170.146 147.307 170.146C146.381 170.146 145.627 169.959 145.045 169.584C144.467 169.205 144.025 168.658 143.721 167.943C143.42 167.229 143.27 166.461 143.27 165.641C143.27 164.746 143.439 163.967 143.779 163.303C144.123 162.635 144.609 162.129 145.238 161.785C145.871 161.438 146.566 161.264 147.324 161.264C148.184 161.264 148.906 161.482 149.492 161.92C150.078 162.357 150.486 162.973 150.717 163.766L149.598 164.029C149.398 163.404 149.109 162.949 148.73 162.664C148.352 162.379 147.875 162.236 147.301 162.236C146.641 162.236 146.088 162.395 145.643 162.711C145.201 163.027 144.891 163.453 144.711 163.988C144.531 164.52 144.441 165.068 144.441 165.635C144.441 166.365 144.547 167.004 144.758 167.551C144.973 168.094 145.305 168.5 145.754 168.77C146.203 169.039 146.689 169.174 147.213 169.174C147.85 169.174 148.389 168.99 148.83 168.623C149.271 168.256 149.57 167.711 149.727 166.988ZM158.398 166.988L159.535 167.275C159.297 168.209 158.867 168.922 158.246 169.414C157.629 169.902 156.873 170.146 155.979 170.146C155.053 170.146 154.299 169.959 153.717 169.584C153.139 169.205 152.697 168.658 152.393 167.943C152.092 167.229 151.941 166.461 151.941 165.641C151.941 164.746 152.111 163.967 152.451 163.303C152.795 162.635 153.281 162.129 153.91 161.785C154.543 161.438 155.238 161.264 155.996 161.264C156.855 161.264 157.578 161.482 158.164 161.92C158.75 162.357 159.158 162.973 159.389 163.766L158.27 164.029C158.07 163.404 157.781 162.949 157.402 162.664C157.023 162.379 156.547 162.236 155.973 162.236C155.312 162.236 154.76 162.395 154.314 162.711C153.873 163.027 153.562 163.453 153.383 163.988C153.203 164.52 153.113 165.068 153.113 165.635C153.113 166.365 153.219 167.004 153.43 167.551C153.645 168.094 153.977 168.5 154.426 168.77C154.875 169.039 155.361 169.174 155.885 169.174C156.521 169.174 157.061 168.99 157.502 168.623C157.943 168.256 158.242 167.711 158.398 166.988ZM160.93 170V161.41H162.096L166.607 168.154V161.41H167.697V170H166.531L162.02 163.25V170H160.93ZM175.742 166.988L176.879 167.275C176.641 168.209 176.211 168.922 175.59 169.414C174.973 169.902 174.217 170.146 173.322 170.146C172.396 170.146 171.643 169.959 171.061 169.584C170.482 169.205 170.041 168.658 169.736 167.943C169.436 167.229 169.285 166.461 169.285 165.641C169.285 164.746 169.455 163.967 169.795 163.303C170.139 162.635 170.625 162.129 171.254 161.785C171.887 161.438 172.582 161.264 173.34 161.264C174.199 161.264 174.922 161.482 175.508 161.92C176.094 162.357 176.502 162.973 176.732 163.766L175.613 164.029C175.414 163.404 175.125 162.949 174.746 162.664C174.367 162.379 173.891 162.236 173.316 162.236C172.656 162.236 172.104 162.395 171.658 162.711C171.217 163.027 170.906 163.453 170.727 163.988C170.547 164.52 170.457 165.068 170.457 165.635C170.457 166.365 170.562 167.004 170.773 167.551C170.988 168.094 171.32 168.5 171.77 168.77C172.219 169.039 172.705 169.174 173.229 169.174C173.865 169.174 174.404 168.99 174.846 168.623C175.287 168.256 175.586 167.711 175.742 166.988ZM184.414 166.988L185.551 167.275C185.312 168.209 184.883 168.922 184.262 169.414C183.645 169.902 182.889 170.146 181.994 170.146C181.068 170.146 180.314 169.959 179.732 169.584C179.154 169.205 178.713 168.658 178.408 167.943C178.107 167.229 177.957 166.461 177.957 165.641C177.957 164.746 178.127 163.967 178.467 163.303C178.811 162.635 179.297 162.129 179.926 161.785C180.559 161.438 181.254 161.264 182.012 161.264C182.871 161.264 183.594 161.482 184.18 161.92C184.766 162.357 185.174 162.973 185.404 163.766L184.285 164.029C184.086 163.404 183.797 162.949 183.418 162.664C183.039 162.379 182.562 162.236 181.988 162.236C181.328 162.236 180.775 162.395 180.33 162.711C179.889 163.027 179.578 163.453 179.398 163.988C179.219 164.52 179.129 165.068 179.129 165.635C179.129 166.365 179.234 167.004 179.445 167.551C179.66 168.094 179.992 168.5 180.441 168.77C180.891 169.039 181.377 169.174 181.9 169.174C182.537 169.174 183.076 168.99 183.518 168.623C183.959 168.256 184.258 167.711 184.414 166.988ZM188.838 172.525C188.256 171.791 187.764 170.932 187.361 169.947C186.959 168.963 186.758 167.943 186.758 166.889C186.758 165.959 186.908 165.068 187.209 164.217C187.561 163.229 188.104 162.244 188.838 161.264H189.594C189.121 162.076 188.809 162.656 188.656 163.004C188.418 163.543 188.23 164.105 188.094 164.691C187.926 165.422 187.842 166.156 187.842 166.895C187.842 168.773 188.426 170.65 189.594 172.525H188.838ZM196.367 164.949H190.695V163.965H196.367V164.949ZM196.367 167.557H190.695V166.572H196.367V167.557ZM197.615 165.816C197.615 164.391 197.998 163.275 198.764 162.471C199.529 161.662 200.518 161.258 201.729 161.258C202.521 161.258 203.236 161.447 203.873 161.826C204.51 162.205 204.994 162.734 205.326 163.414C205.662 164.09 205.83 164.857 205.83 165.717C205.83 166.588 205.654 167.367 205.303 168.055C204.951 168.742 204.453 169.264 203.809 169.619C203.164 169.971 202.469 170.146 201.723 170.146C200.914 170.146 200.191 169.951 199.555 169.561C198.918 169.17 198.436 168.637 198.107 167.961C197.779 167.285 197.615 166.57 197.615 165.816ZM198.787 165.834C198.787 166.869 199.064 167.686 199.619 168.283C200.178 168.877 200.877 169.174 201.717 169.174C202.572 169.174 203.275 168.873 203.826 168.271C204.381 167.67 204.658 166.816 204.658 165.711C204.658 165.012 204.539 164.402 204.301 163.883C204.066 163.359 203.721 162.955 203.264 162.67C202.811 162.381 202.301 162.236 201.734 162.236C200.93 162.236 200.236 162.514 199.654 163.068C199.076 163.619 198.787 164.541 198.787 165.834ZM207.857 172.525H207.102C208.27 170.65 208.854 168.773 208.854 166.895C208.854 166.16 208.77 165.432 208.602 164.709C208.469 164.123 208.283 163.561 208.045 163.021C207.893 162.67 207.578 162.084 207.102 161.264H207.857C208.592 162.244 209.135 163.229 209.486 164.217C209.787 165.068 209.938 165.959 209.938 166.889C209.938 167.943 209.734 168.963 209.328 169.947C208.926 170.932 208.436 171.791 207.857 172.525ZM210.951 165.816C210.951 164.391 211.334 163.275 212.1 162.471C212.865 161.662 213.854 161.258 215.064 161.258C215.857 161.258 216.572 161.447 217.209 161.826C217.846 162.205 218.33 162.734 218.662 163.414C218.998 164.09 219.166 164.857 219.166 165.717C219.166 166.588 218.99 167.367 218.639 168.055C218.287 168.742 217.789 169.264 217.145 169.619C216.5 169.971 215.805 170.146 215.059 170.146C214.25 170.146 213.527 169.951 212.891 169.561C212.254 169.17 211.771 168.637 211.443 167.961C211.115 167.285 210.951 166.57 210.951 165.816ZM212.123 165.834C212.123 166.869 212.4 167.686 212.955 168.283C213.514 168.877 214.213 169.174 215.053 169.174C215.908 169.174 216.611 168.873 217.162 168.271C217.717 167.67 217.994 166.816 217.994 165.711C217.994 165.012 217.875 164.402 217.637 163.883C217.402 163.359 217.057 162.955 216.6 162.67C216.146 162.381 215.637 162.236 215.07 162.236C214.266 162.236 213.572 162.514 212.99 163.068C212.412 163.619 212.123 164.541 212.123 165.834Z" fill="black"/>
<rect x="472.5" y="1.5" width="71" height="25" rx="2.5" fill="#8EBEC9"/>
<rect x="472.5" y="1.5" width="71" height="25" rx="2.5" stroke="black"/>
<rect x="476" y="5" width="64" height="18" rx="2" fill="white"/>
<path d="M482.119 18V9.41016H483.256V18H482.119ZM485.131 18V11.7773H486.08V12.6621C486.537 11.9785 487.197 11.6367 488.061 11.6367C488.436 11.6367 488.779 11.7051 489.092 11.8418C489.408 11.9746 489.645 12.1504 489.801 12.3691C489.957 12.5879 490.066 12.8477 490.129 13.1484C490.168 13.3438 490.188 13.6855 490.188 14.1738V18H489.133V14.2148C489.133 13.7852 489.092 13.4648 489.01 13.2539C488.928 13.0391 488.781 12.8691 488.57 12.7441C488.363 12.6152 488.119 12.5508 487.838 12.5508C487.389 12.5508 487 12.6934 486.672 12.9785C486.348 13.2637 486.186 13.8047 486.186 14.6016V18H485.131ZM494.113 17.0566L494.266 17.9883C493.969 18.0508 493.703 18.082 493.469 18.082C493.086 18.082 492.789 18.0215 492.578 17.9004C492.367 17.7793 492.219 17.6211 492.133 17.4258C492.047 17.2266 492.004 16.8105 492.004 16.1777V12.5977H491.23V11.7773H492.004V10.2363L493.053 9.60352V11.7773H494.113V12.5977H493.053V16.2363C493.053 16.5371 493.07 16.7305 493.105 16.8164C493.145 16.9023 493.205 16.9707 493.287 17.0215C493.373 17.0723 493.494 17.0977 493.65 17.0977C493.768 17.0977 493.922 17.084 494.113 17.0566ZM499.41 15.9961L500.5 16.1309C500.328 16.7676 500.01 17.2617 499.545 17.6133C499.08 17.9648 498.486 18.1406 497.764 18.1406C496.854 18.1406 496.131 17.8613 495.596 17.3027C495.064 16.7402 494.799 15.9531 494.799 14.9414C494.799 13.8945 495.068 13.082 495.607 12.5039C496.146 11.9258 496.846 11.6367 497.705 11.6367C498.537 11.6367 499.217 11.9199 499.744 12.4863C500.271 13.0527 500.535 13.8496 500.535 14.877C500.535 14.9395 500.533 15.0332 500.529 15.1582H495.889C495.928 15.8418 496.121 16.3652 496.469 16.7285C496.816 17.0918 497.25 17.2734 497.77 17.2734C498.156 17.2734 498.486 17.1719 498.76 16.9688C499.033 16.7656 499.25 16.4414 499.41 15.9961ZM495.947 14.291H499.422C499.375 13.7676 499.242 13.375 499.023 13.1133C498.688 12.707 498.252 12.5039 497.717 12.5039C497.232 12.5039 496.824 12.666 496.492 12.9902C496.164 13.3145 495.982 13.748 495.947 14.291ZM501.818 18V11.7773H502.768V12.7207C503.01 12.2793 503.232 11.9883 503.436 11.8477C503.643 11.707 503.869 11.6367 504.115 11.6367C504.471 11.6367 504.832 11.75 505.199 11.9766L504.836 12.9551C504.578 12.8027 504.32 12.7266 504.062 12.7266C503.832 12.7266 503.625 12.7969 503.441 12.9375C503.258 13.0742 503.127 13.2656 503.049 13.5117C502.932 13.8867 502.873 14.2969 502.873 14.7422V18H501.818ZM509.887 17.2324C509.496 17.5645 509.119 17.7988 508.756 17.9355C508.396 18.0723 508.01 18.1406 507.596 18.1406C506.912 18.1406 506.387 17.9746 506.02 17.6426C505.652 17.3066 505.469 16.8789 505.469 16.3594C505.469 16.0547 505.537 15.7773 505.674 15.5273C505.814 15.2734 505.996 15.0703 506.219 14.918C506.445 14.7656 506.699 14.6504 506.98 14.5723C507.188 14.5176 507.5 14.4648 507.918 14.4141C508.77 14.3125 509.396 14.1914 509.799 14.0508C509.803 13.9062 509.805 13.8145 509.805 13.7754C509.805 13.3457 509.705 13.043 509.506 12.8672C509.236 12.6289 508.836 12.5098 508.305 12.5098C507.809 12.5098 507.441 12.5977 507.203 12.7734C506.969 12.9453 506.795 13.252 506.682 13.6934L505.65 13.5527C505.744 13.1113 505.898 12.7559 506.113 12.4863C506.328 12.2129 506.639 12.0039 507.045 11.8594C507.451 11.7109 507.922 11.6367 508.457 11.6367C508.988 11.6367 509.42 11.6992 509.752 11.8242C510.084 11.9492 510.328 12.1074 510.484 12.2988C510.641 12.4863 510.75 12.7246 510.812 13.0137C510.848 13.1934 510.865 13.5176 510.865 13.9863V15.3926C510.865 16.373 510.887 16.9941 510.93 17.2559C510.977 17.5137 511.066 17.7617 511.199 18H510.098C509.988 17.7812 509.918 17.5254 509.887 17.2324ZM509.799 14.877C509.416 15.0332 508.842 15.166 508.076 15.2754C507.643 15.3379 507.336 15.4082 507.156 15.4863C506.977 15.5645 506.838 15.6797 506.74 15.832C506.643 15.9805 506.594 16.1465 506.594 16.3301C506.594 16.6113 506.699 16.8457 506.91 17.0332C507.125 17.2207 507.438 17.3145 507.848 17.3145C508.254 17.3145 508.615 17.2266 508.932 17.0508C509.248 16.8711 509.48 16.627 509.629 16.3184C509.742 16.0801 509.799 15.7285 509.799 15.2637V14.877ZM516.566 15.7207L517.604 15.8555C517.49 16.5703 517.199 17.1309 516.73 17.5371C516.266 17.9395 515.693 18.1406 515.014 18.1406C514.162 18.1406 513.477 17.8633 512.957 17.3086C512.441 16.75 512.184 15.9512 512.184 14.9121C512.184 14.2402 512.295 13.6523 512.518 13.1484C512.74 12.6445 513.078 12.2676 513.531 12.0176C513.988 11.7637 514.484 11.6367 515.02 11.6367C515.695 11.6367 516.248 11.8086 516.678 12.1523C517.107 12.4922 517.383 12.9766 517.504 13.6055L516.479 13.7637C516.381 13.3457 516.207 13.0312 515.957 12.8203C515.711 12.6094 515.412 12.5039 515.061 12.5039C514.529 12.5039 514.098 12.6953 513.766 13.0781C513.434 13.457 513.268 14.0586 513.268 14.8828C513.268 15.7188 513.428 16.3262 513.748 16.7051C514.068 17.084 514.486 17.2734 515.002 17.2734C515.416 17.2734 515.762 17.1465 516.039 16.8926C516.316 16.6387 516.492 16.248 516.566 15.7207ZM520.809 17.0566L520.961 17.9883C520.664 18.0508 520.398 18.082 520.164 18.082C519.781 18.082 519.484 18.0215 519.273 17.9004C519.062 17.7793 518.914 17.6211 518.828 17.4258C518.742 17.2266 518.699 16.8105 518.699 16.1777V12.5977H517.926V11.7773H518.699V10.2363L519.748 9.60352V11.7773H520.809V12.5977H519.748V16.2363C519.748 16.5371 519.766 16.7305 519.801 16.8164C519.84 16.9023 519.9 16.9707 519.982 17.0215C520.068 17.0723 520.189 17.0977 520.346 17.0977C520.463 17.0977 520.617 17.084 520.809 17.0566ZM526.105 15.9961L527.195 16.1309C527.023 16.7676 526.705 17.2617 526.24 17.6133C525.775 17.9648 525.182 18.1406 524.459 18.1406C523.549 18.1406 522.826 17.8613 522.291 17.3027C521.76 16.7402 521.494 15.9531 521.494 14.9414C521.494 13.8945 521.764 13.082 522.303 12.5039C522.842 11.9258 523.541 11.6367 524.4 11.6367C525.232 11.6367 525.912 11.9199 526.439 12.4863C526.967 13.0527 527.23 13.8496 527.23 14.877C527.23 14.9395 527.229 15.0332 527.225 15.1582H522.584C522.623 15.8418 522.816 16.3652 523.164 16.7285C523.512 17.0918 523.945 17.2734 524.465 17.2734C524.852 17.2734 525.182 17.1719 525.455 16.9688C525.729 16.7656 525.945 16.4414 526.105 15.9961ZM522.643 14.291H526.117C526.07 13.7676 525.938 13.375 525.719 13.1133C525.383 12.707 524.947 12.5039 524.412 12.5039C523.928 12.5039 523.52 12.666 523.188 12.9902C522.859 13.3145 522.678 13.748 522.643 14.291ZM532.562 18V17.2148C532.168 17.832 531.588 18.1406 530.822 18.1406C530.326 18.1406 529.869 18.0039 529.451 17.7305C529.037 17.457 528.715 17.0762 528.484 16.5879C528.258 16.0957 528.145 15.5312 528.145 14.8945C528.145 14.2734 528.248 13.7109 528.455 13.207C528.662 12.6992 528.973 12.3105 529.387 12.041C529.801 11.7715 530.264 11.6367 530.775 11.6367C531.15 11.6367 531.484 11.7168 531.777 11.877C532.07 12.0332 532.309 12.2383 532.492 12.4922V9.41016H533.541V18H532.562ZM529.229 14.8945C529.229 15.6914 529.396 16.2871 529.732 16.6816C530.068 17.0762 530.465 17.2734 530.922 17.2734C531.383 17.2734 531.773 17.0859 532.094 16.7109C532.418 16.332 532.58 15.7559 532.58 14.9824C532.58 14.1309 532.416 13.5059 532.088 13.1074C531.76 12.709 531.355 12.5098 530.875 12.5098C530.406 12.5098 530.014 12.7012 529.697 13.084C529.385 13.4668 529.229 14.0703 529.229 14.8945Z" fill="black"/>
<rect x="472.5" y="77.5" width="74" height="25" rx="2.5" fill="#8EBEC9"/>
<rect x="472.5" y="77.5" width="74" height="25" rx="2.5" stroke="black"/>
<rect x="476" y="81" width="67" height="18" rx="2" fill="white"/>
<path d="M481.504 91.7324L482.559 91.5918C482.68 92.1895 482.885 92.6211 483.174 92.8867C483.467 93.1484 483.822 93.2793 484.24 93.2793C484.736 93.2793 485.154 93.1074 485.494 92.7637C485.838 92.4199 486.01 91.9941 486.01 91.4863C486.01 91.002 485.852 90.6035 485.535 90.291C485.219 89.9746 484.816 89.8164 484.328 89.8164C484.129 89.8164 483.881 89.8555 483.584 89.9336L483.701 89.0078C483.771 89.0156 483.828 89.0195 483.871 89.0195C484.32 89.0195 484.725 88.9023 485.084 88.668C485.443 88.4336 485.623 88.0723 485.623 87.584C485.623 87.1973 485.492 86.877 485.23 86.623C484.969 86.3691 484.631 86.2422 484.217 86.2422C483.807 86.2422 483.465 86.3711 483.191 86.6289C482.918 86.8867 482.742 87.2734 482.664 87.7891L481.609 87.6016C481.738 86.8945 482.031 86.3477 482.488 85.9609C482.945 85.5703 483.514 85.375 484.193 85.375C484.662 85.375 485.094 85.4766 485.488 85.6797C485.883 85.8789 486.184 86.1523 486.391 86.5C486.602 86.8477 486.707 87.2168 486.707 87.6074C486.707 87.9785 486.607 88.3164 486.408 88.6211C486.209 88.9258 485.914 89.168 485.523 89.3477C486.031 89.4648 486.426 89.709 486.707 90.0801C486.988 90.4473 487.129 90.9082 487.129 91.4629C487.129 92.2129 486.855 92.8496 486.309 93.373C485.762 93.8926 485.07 94.1523 484.234 94.1523C483.48 94.1523 482.854 93.9277 482.354 93.4785C481.857 93.0293 481.574 92.4473 481.504 91.7324ZM488.605 94V85.4102H491.564C492.232 85.4102 492.742 85.4512 493.094 85.5332C493.586 85.6465 494.006 85.8516 494.354 86.1484C494.807 86.5312 495.145 87.0215 495.367 87.6191C495.594 88.2129 495.707 88.8926 495.707 89.6582C495.707 90.3105 495.631 90.8887 495.479 91.3926C495.326 91.8965 495.131 92.3145 494.893 92.6465C494.654 92.9746 494.393 93.2344 494.107 93.4258C493.826 93.6133 493.484 93.7559 493.082 93.8535C492.684 93.9512 492.225 94 491.705 94H488.605ZM489.742 92.9863H491.576C492.143 92.9863 492.586 92.9336 492.906 92.8281C493.23 92.7227 493.488 92.5742 493.68 92.3828C493.949 92.1133 494.158 91.752 494.307 91.2988C494.459 90.8418 494.535 90.2891 494.535 89.6406C494.535 88.7422 494.387 88.0527 494.09 87.5723C493.797 87.0879 493.439 86.7637 493.018 86.5996C492.713 86.4824 492.223 86.4238 491.547 86.4238H489.742V92.9863ZM497.148 86.623V85.4102H498.203V86.623H497.148ZM497.148 94V87.7773H498.203V94H497.148ZM505.457 93.0566L505.609 93.9883C505.312 94.0508 505.047 94.082 504.812 94.082C504.43 94.082 504.133 94.0215 503.922 93.9004C503.711 93.7793 503.562 93.6211 503.477 93.4258C503.391 93.2266 503.348 92.8105 503.348 92.1777V88.5977H502.574V87.7773H503.348V86.2363L504.396 85.6035V87.7773H505.457V88.5977H504.396V92.2363C504.396 92.5371 504.414 92.7305 504.449 92.8164C504.488 92.9023 504.549 92.9707 504.631 93.0215C504.717 93.0723 504.838 93.0977 504.994 93.0977C505.111 93.0977 505.266 93.084 505.457 93.0566ZM506.102 90.8887C506.102 89.7363 506.422 88.8828 507.062 88.3281C507.598 87.8672 508.25 87.6367 509.02 87.6367C509.875 87.6367 510.574 87.918 511.117 88.4805C511.66 89.0391 511.932 89.8125 511.932 90.8008C511.932 91.6016 511.811 92.2324 511.568 92.6934C511.33 93.1504 510.98 93.5059 510.52 93.7598C510.062 94.0137 509.562 94.1406 509.02 94.1406C508.148 94.1406 507.443 93.8613 506.904 93.3027C506.369 92.7441 506.102 91.9395 506.102 90.8887ZM507.186 90.8887C507.186 91.6855 507.359 92.2832 507.707 92.6816C508.055 93.0762 508.492 93.2734 509.02 93.2734C509.543 93.2734 509.979 93.0742 510.326 92.6758C510.674 92.2773 510.848 91.6699 510.848 90.8535C510.848 90.084 510.672 89.502 510.32 89.1074C509.973 88.709 509.539 88.5098 509.02 88.5098C508.492 88.5098 508.055 88.707 507.707 89.1016C507.359 89.4961 507.186 90.0918 507.186 90.8887ZM513.18 94V85.4102H514.234V90.3086L516.73 87.7773H518.096L515.717 90.0859L518.336 94H517.035L514.979 90.8184L514.234 91.5332V94H513.18ZM523.434 91.9961L524.523 92.1309C524.352 92.7676 524.033 93.2617 523.568 93.6133C523.104 93.9648 522.51 94.1406 521.787 94.1406C520.877 94.1406 520.154 93.8613 519.619 93.3027C519.088 92.7402 518.822 91.9531 518.822 90.9414C518.822 89.8945 519.092 89.082 519.631 88.5039C520.17 87.9258 520.869 87.6367 521.729 87.6367C522.561 87.6367 523.24 87.9199 523.768 88.4863C524.295 89.0527 524.559 89.8496 524.559 90.877C524.559 90.9395 524.557 91.0332 524.553 91.1582H519.912C519.951 91.8418 520.145 92.3652 520.492 92.7285C520.84 93.0918 521.273 93.2734 521.793 93.2734C522.18 93.2734 522.51 93.1719 522.783 92.9688C523.057 92.7656 523.273 92.4414 523.434 91.9961ZM519.971 90.291H523.445C523.398 89.7676 523.266 89.375 523.047 89.1133C522.711 88.707 522.275 88.5039 521.74 88.5039C521.256 88.5039 520.848 88.666 520.516 88.9902C520.188 89.3145 520.006 89.748 519.971 90.291ZM525.854 94V87.7773H526.803V88.6621C527.26 87.9785 527.92 87.6367 528.783 87.6367C529.158 87.6367 529.502 87.7051 529.814 87.8418C530.131 87.9746 530.367 88.1504 530.523 88.3691C530.68 88.5879 530.789 88.8477 530.852 89.1484C530.891 89.3438 530.91 89.6855 530.91 90.1738V94H529.855V90.2148C529.855 89.7852 529.814 89.4648 529.732 89.2539C529.65 89.0391 529.504 88.8691 529.293 88.7441C529.086 88.6152 528.842 88.5508 528.561 88.5508C528.111 88.5508 527.723 88.6934 527.395 88.9785C527.07 89.2637 526.908 89.8047 526.908 90.6016V94H525.854ZM532.111 92.1426L533.154 91.9785C533.213 92.3965 533.375 92.7168 533.641 92.9395C533.91 93.1621 534.285 93.2734 534.766 93.2734C535.25 93.2734 535.609 93.1758 535.844 92.9805C536.078 92.7812 536.195 92.5488 536.195 92.2832C536.195 92.0449 536.092 91.8574 535.885 91.7207C535.74 91.627 535.381 91.5078 534.807 91.3633C534.033 91.168 533.496 91 533.195 90.8594C532.898 90.7148 532.672 90.5176 532.516 90.2676C532.363 90.0137 532.287 89.7344 532.287 89.4297C532.287 89.1523 532.35 88.8965 532.475 88.6621C532.604 88.4238 532.777 88.2266 532.996 88.0703C533.16 87.9492 533.383 87.8477 533.664 87.7656C533.949 87.6797 534.254 87.6367 534.578 87.6367C535.066 87.6367 535.494 87.707 535.861 87.8477C536.232 87.9883 536.506 88.1797 536.682 88.4219C536.857 88.6602 536.979 88.9805 537.045 89.3828L536.014 89.5234C535.967 89.2031 535.83 88.9531 535.604 88.7734C535.381 88.5938 535.064 88.5039 534.654 88.5039C534.17 88.5039 533.824 88.584 533.617 88.7441C533.41 88.9043 533.307 89.0918 533.307 89.3066C533.307 89.4434 533.35 89.5664 533.436 89.6758C533.521 89.7891 533.656 89.8828 533.84 89.957C533.945 89.9961 534.256 90.0859 534.771 90.2266C535.518 90.4258 536.037 90.5898 536.33 90.7188C536.627 90.8438 536.859 91.0273 537.027 91.2695C537.195 91.5117 537.279 91.8125 537.279 92.1719C537.279 92.5234 537.176 92.8555 536.969 93.168C536.766 93.4766 536.471 93.7168 536.084 93.8887C535.697 94.0566 535.26 94.1406 534.771 94.1406C533.963 94.1406 533.346 93.9727 532.92 93.6367C532.498 93.3008 532.229 92.8027 532.111 92.1426Z" fill="black"/>
<rect x="0.5" y="76.5" width="105" height="27" rx="2.5" fill="#EAC293"/>
<rect x="0.5" y="76.5" width="105" height="27" rx="2.5" stroke="black"/>
<rect x="4" y="80" width="20" height="20" rx="2" fill="white"/>
<path d="M13.9453 90.6309V89.623L17.584 89.6172V92.8047C17.0254 93.25 16.4492 93.5859 15.8555 93.8125C15.2617 94.0352 14.6523 94.1465 14.0273 94.1465C13.1836 94.1465 12.416 93.9668 11.7246 93.6074C11.0371 93.2441 10.5176 92.7207 10.166 92.0371C9.81445 91.3535 9.63867 90.5898 9.63867 89.7461C9.63867 88.9102 9.8125 88.1309 10.1602 87.4082C10.5117 86.6816 11.0156 86.1426 11.6719 85.791C12.3281 85.4395 13.084 85.2637 13.9395 85.2637C14.5605 85.2637 15.1211 85.3652 15.6211 85.5684C16.125 85.7676 16.5195 86.0469 16.8047 86.4062C17.0898 86.7656 17.3066 87.2344 17.4551 87.8125L16.4297 88.0938C16.3008 87.6562 16.1406 87.3125 15.9492 87.0625C15.7578 86.8125 15.4844 86.6133 15.1289 86.4648C14.7734 86.3125 14.3789 86.2363 13.9453 86.2363C13.4258 86.2363 12.9766 86.3164 12.5977 86.4766C12.2188 86.6328 11.9121 86.8398 11.6777 87.0977C11.4473 87.3555 11.2676 87.6387 11.1387 87.9473C10.9199 88.4785 10.8105 89.0547 10.8105 89.6758C10.8105 90.4414 10.9414 91.082 11.2031 91.5977C11.4688 92.1133 11.8535 92.4961 12.3574 92.7461C12.8613 92.9961 13.3965 93.1211 13.9629 93.1211C14.4551 93.1211 14.9355 93.0273 15.4043 92.8398C15.873 92.6484 16.2285 92.4453 16.4707 92.2305V90.6309H13.9453Z" fill="black"/>
<rect x="30" y="80" width="20" height="20" rx="2" fill="white"/>
<path d="M35.4824 94L38.7812 85.4102H40.0059L43.5215 94H42.2266L41.2246 91.3984H37.6328L36.6895 94H35.4824ZM37.9609 90.4727H40.873L39.9766 88.0938C39.7031 87.3711 39.5 86.7773 39.3672 86.3125C39.2578 86.8633 39.1035 87.4102 38.9043 87.9531L37.9609 90.4727Z" fill="black"/>
<rect x="56" y="80" width="20" height="20" rx="2" fill="white"/>
<path d="M62.4258 94V85.4102H65.3848C66.0527 85.4102 66.5625 85.4512 66.9141 85.5332C67.4062 85.6465 67.8262 85.8516 68.1738 86.1484C68.627 86.5312 68.9648 87.0215 69.1875 87.6191C69.4141 88.2129 69.5273 88.8926 69.5273 89.6582C69.5273 90.3105 69.4512 90.8887 69.2988 91.3926C69.1465 91.8965 68.9512 92.3145 68.7129 92.6465C68.4746 92.9746 68.2129 93.2344 67.9277 93.4258C67.6465 93.6133 67.3047 93.7559 66.9023 93.8535C66.5039 93.9512 66.0449 94 65.5254 94H62.4258ZM63.5625 92.9863H65.3965C65.9629 92.9863 66.4062 92.9336 66.7266 92.8281C67.0508 92.7227 67.3086 92.5742 67.5 92.3828C67.7695 92.1133 67.9785 91.752 68.127 91.2988C68.2793 90.8418 68.3555 90.2891 68.3555 89.6406C68.3555 88.7422 68.207 88.0527 67.9102 87.5723C67.6172 87.0879 67.2598 86.7637 66.8379 86.5996C66.5332 86.4824 66.043 86.4238 65.3672 86.4238H63.5625V92.9863Z" fill="black"/>
<rect x="82" y="80" width="20" height="20" rx="2" fill="white"/>
<path d="M91.1191 94V85.4102H92.2559V94H91.1191Z" fill="black"/>
<rect x="0.5" y="114.5" width="105" height="27" rx="2.5" fill="#EAC293"/>
<rect x="0.5" y="114.5" width="105" height="27" rx="2.5" stroke="black"/>
<rect x="4" y="118" width="20" height="20" rx="2" fill="white"/>
<path d="M9.48242 132L12.7812 123.41H14.0059L17.5215 132H16.2266L15.2246 129.398H11.6328L10.6895 132H9.48242ZM11.9609 128.473H14.873L13.9766 126.094C13.7031 125.371 13.5 124.777 13.3672 124.312C13.2578 124.863 13.1035 125.41 12.9043 125.953L11.9609 128.473Z" fill="black"/>
<rect x="30" y="118" width="20" height="20" rx="2" fill="white"/>
<path d="M38.8457 132V128.361L35.5352 123.41H36.918L38.6113 126C38.9238 126.484 39.2148 126.969 39.4844 127.453C39.7422 127.004 40.0547 126.498 40.4219 125.936L42.0859 123.41H43.4102L39.9824 128.361V132H38.8457Z" fill="black"/>
<rect x="56" y="118" width="20" height="20" rx="2" fill="white"/>
<path d="M63.3789 132V123.41H64.5156V130.986H68.7461V132H63.3789Z" fill="black"/>
<rect x="82" y="118" width="20" height="20" rx="2" fill="white"/>
<path d="M90.8809 132L87.5527 123.41H88.7832L91.0156 129.65C91.1953 130.15 91.3457 130.619 91.4668 131.057C91.5996 130.588 91.7539 130.119 91.9297 129.65L94.25 123.41H95.4102L92.0469 132H90.8809Z" fill="black"/>
<path d="M278 14L273 11.1132V16.8868L278 14ZM238.5 14V12H237.5V14H238.5ZM237.5 14V16H238.5V14H237.5ZM238 14.5H273.5V13.5H238V14.5Z" fill="black"/>
<path d="M278 167L273 164.113V169.887L278 167ZM236.5 167V165H235.5V167H236.5ZM235.5 167V169H236.5V167H235.5ZM236 167.5H273.5V166.5H236V167.5Z" fill="black"/>
<path d="M462 14L457 11.1132V16.8868L462 14ZM422.5 14V12H421.5V14H422.5ZM421.5 14V16H422.5V14H421.5ZM422 14.5H457.5V13.5H422V14.5Z" fill="black"/>
<path d="M462 52L457 49.1132V54.8868L462 52ZM422.5 52V50H421.5V52H422.5ZM421.5 52V54H422.5V52H421.5ZM422 52.5H457.5V51.5H422V52.5Z" fill="black"/>
<path d="M462 166L457 163.113V168.887L462 166ZM422.5 166V164H421.5V166H422.5ZM421.5 166V168H422.5V166H421.5ZM422 166.5H457.5V165.5H422V166.5Z" fill="black"/>
<path d="M462 90L457 87.1132V92.8868L462 90ZM422.5 90V88H421.5V90H422.5ZM421.5 90V92H422.5V90H421.5ZM422 90.5H457.5V89.5H422V90.5Z" fill="black"/>
<path d="M462 128L457 125.113V130.887L462 128ZM422.5 128V126H421.5V128H422.5ZM421.5 128V130H422.5V128H421.5ZM422 128.5H457.5V127.5H422V128.5Z" fill="black"/>
<path d="M278 52.5L273 49.6132V55.3868L278 52.5ZM113.5 52.5V51H112.5V52.5H113.5ZM112.5 52.5V54H113.5V52.5H112.5ZM113 53H273.5V52H113V53Z" fill="black"/>
<path d="M278 90.5L273 87.6132V93.3868L278 90.5ZM113.5 90.5V89H112.5V90.5H113.5ZM112.5 90.5V92H113.5V90.5H112.5ZM113 91H273.5V90H113V91Z" fill="black"/>
<path d="M278 128.5L273 125.613V131.387L278 128.5ZM113.5 128.5V127H112.5V128.5H113.5ZM112.5 128.5V130H113.5V128.5H112.5ZM113 129H273.5V128H113V129Z" fill="black"/>
</svg>
