<svg width="575" height="180" viewBox="0 0 575 180" fill="none" xmlns="http://www.w3.org/2000/svg">
<rect x="301.5" y="0.5" width="96" height="179" rx="4.5" fill="#C5BEDF"/>
<rect x="301.5" y="0.5" width="96" height="179" rx="4.5" stroke="black"/>
<path d="M312.91 95.5V85.3182H316.35C317.149 85.3182 317.802 85.4624 318.309 85.7507C318.819 86.0357 319.197 86.4219 319.442 86.9091C319.688 87.3963 319.81 87.9399 319.81 88.5398C319.81 89.1397 319.688 89.6849 319.442 90.1754C319.2 90.666 318.826 91.0571 318.319 91.3487C317.812 91.6371 317.162 91.7812 316.37 91.7812H313.904V90.6875H316.33C316.877 90.6875 317.316 90.593 317.648 90.4041C317.979 90.2152 318.219 89.96 318.369 89.6385C318.521 89.3137 318.597 88.9474 318.597 88.5398C318.597 88.1321 318.521 87.7675 318.369 87.446C318.219 87.1245 317.977 86.8726 317.643 86.6903C317.308 86.5047 316.864 86.4119 316.31 86.4119H314.143V95.5H312.91ZM321.637 95.5V87.8636H322.771V89.017H322.85C322.99 88.6392 323.242 88.3326 323.606 88.0973C323.971 87.862 324.382 87.7443 324.839 87.7443C324.925 87.7443 325.033 87.746 325.162 87.7493C325.291 87.7526 325.389 87.7576 325.456 87.7642V88.9574C325.416 88.9474 325.325 88.9325 325.182 88.9126C325.043 88.8894 324.895 88.8778 324.74 88.8778C324.368 88.8778 324.037 88.9557 323.745 89.1115C323.457 89.264 323.228 89.4761 323.059 89.7479C322.893 90.0163 322.811 90.3229 322.811 90.6676V95.5H321.637ZM329.716 95.6591C329.027 95.6591 328.422 95.495 327.902 95.1669C327.384 94.8388 326.98 94.3797 326.688 93.7898C326.4 93.1998 326.256 92.5104 326.256 91.7216C326.256 90.9261 326.4 90.2318 326.688 89.6385C326.98 89.0452 327.384 88.5845 327.902 88.2564C328.422 87.9283 329.027 87.7642 329.716 87.7642C330.406 87.7642 331.009 87.9283 331.526 88.2564C332.046 88.5845 332.451 89.0452 332.739 89.6385C333.031 90.2318 333.176 90.9261 333.176 91.7216C333.176 92.5104 333.031 93.1998 332.739 93.7898C332.451 94.3797 332.046 94.8388 331.526 95.1669C331.009 95.495 330.406 95.6591 329.716 95.6591ZM329.716 94.6051C330.24 94.6051 330.671 94.4709 331.009 94.2024C331.347 93.9339 331.597 93.581 331.759 93.1435C331.922 92.706 332.003 92.232 332.003 91.7216C332.003 91.2112 331.922 90.7356 331.759 90.2947C331.597 89.8539 331.347 89.4976 331.009 89.2259C330.671 88.9541 330.24 88.8182 329.716 88.8182C329.193 88.8182 328.762 88.9541 328.424 89.2259C328.085 89.4976 327.835 89.8539 327.673 90.2947C327.51 90.7356 327.429 91.2112 327.429 91.7216C327.429 92.232 327.51 92.706 327.673 93.1435C327.835 93.581 328.085 93.9339 328.424 94.2024C328.762 94.4709 329.193 94.6051 329.716 94.6051ZM338.288 87.8636V88.858H334.331V87.8636H338.288ZM335.484 86.0341H336.658V93.3125C336.658 93.6439 336.706 93.8925 336.802 94.0582C336.901 94.2206 337.027 94.33 337.18 94.3864C337.336 94.4394 337.5 94.4659 337.672 94.4659C337.801 94.4659 337.907 94.4593 337.99 94.446C338.073 94.4295 338.139 94.4162 338.189 94.4062L338.428 95.4602C338.348 95.4901 338.237 95.5199 338.095 95.5497C337.952 95.5829 337.771 95.5994 337.553 95.5994C337.221 95.5994 336.896 95.5282 336.578 95.3857C336.263 95.2431 336.002 95.026 335.793 94.7344C335.587 94.4427 335.484 94.0748 335.484 93.6307V86.0341ZM340.033 95.5V94.6051L343.394 90.9261C343.789 90.4953 344.113 90.1207 344.369 89.8026C344.624 89.4811 344.813 89.1795 344.935 88.8977C345.061 88.6127 345.124 88.3144 345.124 88.0028C345.124 87.6449 345.038 87.335 344.866 87.0732C344.697 86.8113 344.465 86.6091 344.17 86.4666C343.875 86.3241 343.543 86.2528 343.176 86.2528C342.784 86.2528 342.443 86.334 342.151 86.4964C341.863 86.6555 341.639 86.8793 341.48 87.1676C341.324 87.456 341.247 87.794 341.247 88.1818H340.073C340.073 87.5852 340.211 87.0616 340.486 86.6108C340.761 86.16 341.136 85.8087 341.609 85.5568C342.087 85.3049 342.622 85.179 343.215 85.179C343.812 85.179 344.341 85.3049 344.801 85.5568C345.262 85.8087 345.623 86.1484 345.885 86.576C346.147 87.0036 346.278 87.4792 346.278 88.0028C346.278 88.3774 346.21 88.7436 346.074 89.1016C345.941 89.4562 345.709 89.8523 345.378 90.2898C345.05 90.724 344.594 91.2543 344.011 91.8807L341.724 94.3267V94.4062H346.457V95.5H340.033ZM348.132 86.4119V85.3182H355.769V86.4119H352.567V95.5H351.334V86.4119H348.132ZM359.507 95.6591C358.818 95.6591 358.213 95.495 357.693 95.1669C357.176 94.8388 356.771 94.3797 356.479 93.7898C356.191 93.1998 356.047 92.5104 356.047 91.7216C356.047 90.9261 356.191 90.2318 356.479 89.6385C356.771 89.0452 357.176 88.5845 357.693 88.2564C358.213 87.9283 358.818 87.7642 359.507 87.7642C360.197 87.7642 360.8 87.9283 361.317 88.2564C361.837 88.5845 362.242 89.0452 362.53 89.6385C362.822 90.2318 362.967 90.9261 362.967 91.7216C362.967 92.5104 362.822 93.1998 362.53 93.7898C362.242 94.3797 361.837 94.8388 361.317 95.1669C360.8 95.495 360.197 95.6591 359.507 95.6591ZM359.507 94.6051C360.031 94.6051 360.462 94.4709 360.8 94.2024C361.138 93.9339 361.388 93.581 361.551 93.1435C361.713 92.706 361.794 92.232 361.794 91.7216C361.794 91.2112 361.713 90.7356 361.551 90.2947C361.388 89.8539 361.138 89.4976 360.8 89.2259C360.462 88.9541 360.031 88.8182 359.507 88.8182C358.984 88.8182 358.553 88.9541 358.215 89.2259C357.877 89.4976 357.626 89.8539 357.464 90.2947C357.301 90.7356 357.22 91.2112 357.22 91.7216C357.22 92.232 357.301 92.706 357.464 93.1435C357.626 93.581 357.877 93.9339 358.215 94.2024C358.553 94.4709 358.984 94.6051 359.507 94.6051ZM365.852 92.7159L365.832 91.2642H366.071L369.412 87.8636H370.864L367.304 91.4631H367.204L365.852 92.7159ZM364.758 95.5V85.3182H365.932V95.5H364.758ZM369.611 95.5L366.628 91.7216L367.463 90.9062L371.102 95.5H369.611ZM375.261 95.6591C374.525 95.6591 373.89 95.4967 373.357 95.1719C372.826 94.8438 372.417 94.3864 372.129 93.7997C371.844 93.2098 371.701 92.5237 371.701 91.7415C371.701 90.9593 371.844 90.2699 372.129 89.6733C372.417 89.0734 372.818 88.6061 373.332 88.2713C373.849 87.9332 374.452 87.7642 375.142 87.7642C375.539 87.7642 375.932 87.8305 376.32 87.9631C376.708 88.0956 377.061 88.3111 377.379 88.6094C377.697 88.9044 377.951 89.2955 378.139 89.7827C378.328 90.2699 378.423 90.8698 378.423 91.5824V92.0795H372.536V91.0653H377.23C377.23 90.6345 377.143 90.25 376.971 89.9119C376.802 89.5739 376.56 89.3071 376.245 89.1115C375.934 88.916 375.566 88.8182 375.142 88.8182C374.674 88.8182 374.27 88.9342 373.929 89.1662C373.59 89.3949 373.33 89.6932 373.148 90.0611C372.966 90.429 372.875 90.8234 372.875 91.2443V91.9205C372.875 92.4972 372.974 92.986 373.173 93.3871C373.375 93.7848 373.655 94.0881 374.013 94.2969C374.371 94.5024 374.787 94.6051 375.261 94.6051C375.569 94.6051 375.848 94.562 376.096 94.4759C376.348 94.3864 376.565 94.2538 376.747 94.0781C376.93 93.8991 377.071 93.6771 377.17 93.4119L378.304 93.7301C378.184 94.1146 377.984 94.4527 377.702 94.7443C377.42 95.0327 377.072 95.258 376.658 95.4205C376.244 95.5795 375.778 95.6591 375.261 95.6591ZM381.381 90.9062V95.5H380.208V87.8636H381.341V89.0568H381.441C381.62 88.669 381.891 88.3575 382.256 88.1222C382.621 87.8835 383.091 87.7642 383.668 87.7642C384.185 87.7642 384.637 87.8703 385.025 88.0824C385.413 88.2912 385.715 88.6094 385.93 89.0369C386.145 89.4612 386.253 89.9981 386.253 90.6477V95.5H385.08V90.7273C385.08 90.1274 384.924 89.66 384.612 89.3253C384.301 88.9872 383.873 88.8182 383.33 88.8182C382.955 88.8182 382.621 88.8994 382.326 89.0618C382.034 89.2242 381.804 89.4612 381.634 89.7727C381.465 90.0843 381.381 90.4621 381.381 90.9062Z" fill="black"/>
<rect x="0.5" y="38.5" width="105" height="27" rx="2.5" fill="#EAC293"/>
<rect x="0.5" y="38.5" width="105" height="27" rx="2.5" stroke="black"/>
<rect x="4.25" y="42.25" width="19.5" height="19.5" rx="1.75" fill="white"/>
<rect x="4.25" y="42.25" width="19.5" height="19.5" rx="1.75" stroke="#8D8D8D" stroke-width="0.5"/>
<path d="M11.58 56V47.6H16.62V48.584H12.72V51.14H16.08V52.1H12.72V55.016H16.62V56H11.58Z" fill="black"/>
<rect x="30.25" y="42.25" width="19.5" height="19.5" rx="1.75" fill="white"/>
<rect x="30.25" y="42.25" width="19.5" height="19.5" rx="1.75" stroke="#8D8D8D" stroke-width="0.5"/>
<path d="M37.58 56V47.6H38.72V54.98H42.572V56H37.58Z" fill="black"/>
<rect x="56.25" y="42.25" width="19.5" height="19.5" rx="1.75" fill="white"/>
<rect x="56.25" y="42.25" width="19.5" height="19.5" rx="1.75" stroke="#8D8D8D" stroke-width="0.5"/>
<path d="M65.08 56V47.6H66.22V56H65.08Z" fill="black"/>
<rect x="82.25" y="42.25" width="19.5" height="19.5" rx="1.75" fill="white"/>
<rect x="82.25" y="42.25" width="19.5" height="19.5" rx="1.75" stroke="#8D8D8D" stroke-width="0.5"/>
<path d="M91.668 56.144C91.084 56.144 90.552 56.068 90.072 55.916C89.592 55.756 89.188 55.548 88.86 55.292L89.436 54.332C89.724 54.572 90.048 54.768 90.408 54.92C90.768 55.072 91.188 55.148 91.668 55.148C92.244 55.148 92.7 55.028 93.036 54.788C93.372 54.548 93.54 54.224 93.54 53.816C93.54 53.584 93.492 53.38 93.396 53.204C93.3 53.02 93.112 52.844 92.832 52.676C92.56 52.5 92.156 52.312 91.62 52.112C91.044 51.888 90.584 51.664 90.24 51.44C89.896 51.208 89.648 50.948 89.496 50.66C89.352 50.364 89.28 50.016 89.28 49.616C89.28 49.216 89.388 48.856 89.604 48.536C89.828 48.208 90.152 47.948 90.576 47.756C91.008 47.556 91.528 47.456 92.136 47.456C92.632 47.456 93.076 47.508 93.468 47.612C93.868 47.708 94.256 47.848 94.632 48.032L94.212 49.004C93.94 48.844 93.62 48.712 93.252 48.608C92.892 48.496 92.512 48.44 92.112 48.44C91.584 48.44 91.168 48.544 90.864 48.752C90.56 48.96 90.408 49.228 90.408 49.556C90.408 49.764 90.452 49.948 90.54 50.108C90.628 50.268 90.8 50.424 91.056 50.576C91.32 50.728 91.712 50.9 92.232 51.092C92.856 51.324 93.348 51.568 93.708 51.824C94.076 52.08 94.336 52.36 94.488 52.664C94.64 52.96 94.716 53.3 94.716 53.684C94.716 54.204 94.584 54.648 94.32 55.016C94.064 55.384 93.704 55.664 93.24 55.856C92.784 56.048 92.26 56.144 91.668 56.144Z" fill="black"/>
<rect x="472.5" y="39.5" width="63" height="26" rx="2.5" fill="#8EBEC9"/>
<rect x="472.5" y="39.5" width="63" height="26" rx="2.5" stroke="black"/>
<rect x="476.25" y="43.25" width="55.5" height="18.5" rx="1.75" fill="white"/>
<rect x="476.25" y="43.25" width="55.5" height="18.5" rx="1.75" stroke="#8D8D8D" stroke-width="0.5"/>
<path d="M486.83 50.4545C486.778 50.0227 486.571 49.6875 486.207 49.4489C485.844 49.2102 485.398 49.0909 484.869 49.0909C484.483 49.0909 484.145 49.1534 483.855 49.2784C483.568 49.4034 483.344 49.5753 483.182 49.794C483.023 50.0128 482.943 50.2614 482.943 50.5398C482.943 50.7727 482.999 50.973 483.109 51.1406C483.223 51.3054 483.368 51.4432 483.544 51.554C483.72 51.6619 483.905 51.7514 484.098 51.8224C484.291 51.8906 484.469 51.946 484.631 51.9886L485.517 52.2273C485.744 52.2869 485.997 52.3693 486.276 52.4744C486.557 52.5795 486.825 52.723 487.081 52.9048C487.339 53.0838 487.553 53.3139 487.72 53.5952C487.888 53.8764 487.972 54.2216 487.972 54.6307C487.972 55.1023 487.848 55.5284 487.601 55.9091C487.357 56.2898 486.999 56.5923 486.527 56.8168C486.058 57.0412 485.489 57.1534 484.818 57.1534C484.193 57.1534 483.652 57.0526 483.195 56.8509C482.74 56.6491 482.382 56.3679 482.121 56.0071C481.862 55.6463 481.716 55.2273 481.682 54.75H482.773C482.801 55.0795 482.912 55.3523 483.105 55.5682C483.301 55.7812 483.548 55.9403 483.847 56.0455C484.148 56.1477 484.472 56.1989 484.818 56.1989C485.222 56.1989 485.584 56.1335 485.905 56.0028C486.226 55.8693 486.48 55.6847 486.668 55.4489C486.855 55.2102 486.949 54.9318 486.949 54.6136C486.949 54.3239 486.868 54.0881 486.706 53.9062C486.544 53.7244 486.331 53.5767 486.067 53.4631C485.803 53.3494 485.517 53.25 485.21 53.1648L484.136 52.858C483.455 52.6619 482.915 52.3821 482.517 52.0185C482.119 51.6548 481.92 51.179 481.92 50.5909C481.92 50.1023 482.053 49.6761 482.317 49.3125C482.584 48.946 482.942 48.6619 483.391 48.4602C483.842 48.2557 484.347 48.1534 484.903 48.1534C485.466 48.1534 485.966 48.2543 486.403 48.456C486.841 48.6548 487.188 48.9276 487.443 49.2741C487.702 49.6207 487.838 50.0142 487.852 50.4545H486.83ZM492.419 50.4545V51.3068H489.027V50.4545H492.419ZM490.016 48.8864H491.022V55.125C491.022 55.4091 491.063 55.6222 491.145 55.7642C491.23 55.9034 491.338 55.9972 491.469 56.0455C491.603 56.0909 491.743 56.1136 491.891 56.1136C492.002 56.1136 492.093 56.108 492.164 56.0966C492.235 56.0824 492.292 56.071 492.334 56.0625L492.539 56.9659C492.471 56.9915 492.375 57.017 492.253 57.0426C492.131 57.071 491.976 57.0852 491.789 57.0852C491.505 57.0852 491.226 57.0241 490.953 56.902C490.684 56.7798 490.459 56.5938 490.28 56.3438C490.104 56.0938 490.016 55.7784 490.016 55.3977V48.8864ZM495.858 57.1534C495.444 57.1534 495.067 57.0753 494.729 56.919C494.391 56.7599 494.123 56.5312 493.924 56.233C493.725 55.9318 493.625 55.5682 493.625 55.142C493.625 54.767 493.699 54.4631 493.847 54.2301C493.995 53.9943 494.192 53.8097 494.439 53.6761C494.686 53.5426 494.959 53.4432 495.257 53.3778C495.559 53.3097 495.861 53.2557 496.165 53.2159C496.563 53.1648 496.885 53.1264 497.132 53.1009C497.382 53.0724 497.564 53.0256 497.678 52.9602C497.794 52.8949 497.853 52.7812 497.853 52.6193V52.5852C497.853 52.1648 497.738 51.8381 497.507 51.6051C497.28 51.3722 496.935 51.2557 496.472 51.2557C495.992 51.2557 495.615 51.3608 495.343 51.571C495.07 51.7812 494.878 52.0057 494.767 52.2443L493.813 51.9034C493.983 51.5057 494.211 51.196 494.495 50.9744C494.782 50.75 495.094 50.5937 495.432 50.5057C495.773 50.4148 496.108 50.3693 496.438 50.3693C496.648 50.3693 496.89 50.3949 497.162 50.446C497.438 50.4943 497.703 50.5952 497.959 50.7486C498.218 50.902 498.432 51.1335 498.603 51.4432C498.773 51.7528 498.858 52.1676 498.858 52.6875V57H497.853V56.1136H497.801C497.733 56.2557 497.62 56.4077 497.461 56.5696C497.301 56.7315 497.09 56.8693 496.826 56.983C496.561 57.0966 496.239 57.1534 495.858 57.1534ZM496.012 56.25C496.409 56.25 496.745 56.1719 497.017 56.0156C497.293 55.8594 497.5 55.6577 497.64 55.4105C497.782 55.1634 497.853 54.9034 497.853 54.6307V53.7102C497.81 53.7614 497.716 53.8082 497.571 53.8509C497.429 53.8906 497.265 53.9261 497.077 53.9574C496.892 53.9858 496.712 54.0114 496.536 54.0341C496.363 54.054 496.222 54.071 496.114 54.0852C495.853 54.1193 495.608 54.1747 495.381 54.2514C495.157 54.3253 494.975 54.4375 494.836 54.5881C494.699 54.7358 494.631 54.9375 494.631 55.1932C494.631 55.5426 494.76 55.8068 495.019 55.9858C495.28 56.1619 495.611 56.25 496.012 56.25ZM500.83 57V48.2727H501.836V51.4943H501.921C501.995 51.3807 502.097 51.2358 502.228 51.0597C502.362 50.8807 502.552 50.7216 502.799 50.5824C503.049 50.4403 503.387 50.3693 503.813 50.3693C504.364 50.3693 504.85 50.5071 505.271 50.7827C505.691 51.0582 506.019 51.4489 506.255 51.9545C506.491 52.4602 506.609 53.0568 506.609 53.7443C506.609 54.4375 506.491 55.0384 506.255 55.5469C506.019 56.0526 505.692 56.4446 505.275 56.723C504.857 56.9986 504.376 57.1364 503.83 57.1364C503.41 57.1364 503.073 57.0668 502.82 56.9276C502.567 56.7855 502.373 56.625 502.237 56.446C502.1 56.2642 501.995 56.1136 501.921 55.9943H501.802V57H500.83ZM501.819 53.7273C501.819 54.2216 501.891 54.6577 502.036 55.0355C502.181 55.4105 502.393 55.7045 502.671 55.9176C502.95 56.1278 503.29 56.233 503.694 56.233C504.114 56.233 504.465 56.1222 504.746 55.9006C505.031 55.6761 505.244 55.375 505.386 54.9972C505.531 54.6165 505.603 54.1932 505.603 53.7273C505.603 53.267 505.532 52.8523 505.39 52.483C505.251 52.1108 505.039 51.8168 504.755 51.6009C504.474 51.3821 504.12 51.2727 503.694 51.2727C503.285 51.2727 502.941 51.3764 502.663 51.5838C502.384 51.7884 502.174 52.0753 502.032 52.4446C501.89 52.8111 501.819 53.2386 501.819 53.7273ZM508.147 57V50.4545H509.153V57H508.147ZM508.658 49.3636C508.462 49.3636 508.293 49.2969 508.151 49.1634C508.012 49.0298 507.942 48.8693 507.942 48.6818C507.942 48.4943 508.012 48.3338 508.151 48.2003C508.293 48.0668 508.462 48 508.658 48C508.854 48 509.022 48.0668 509.161 48.2003C509.303 48.3338 509.374 48.4943 509.374 48.6818C509.374 48.8693 509.303 49.0298 509.161 49.1634C509.022 49.2969 508.854 49.3636 508.658 49.3636ZM512 48.2727V57H510.995V48.2727H512ZM513.842 57V50.4545H514.848V57H513.842ZM514.354 49.3636C514.158 49.3636 513.989 49.2969 513.847 49.1634C513.707 49.0298 513.638 48.8693 513.638 48.6818C513.638 48.4943 513.707 48.3338 513.847 48.2003C513.989 48.0668 514.158 48 514.354 48C514.55 48 514.717 48.0668 514.857 48.2003C514.999 48.3338 515.07 48.4943 515.07 48.6818C515.07 48.8693 514.999 49.0298 514.857 49.1634C514.717 49.2969 514.55 49.3636 514.354 49.3636ZM519.537 50.4545V51.3068H516.145V50.4545H519.537ZM517.133 48.8864H518.139V55.125C518.139 55.4091 518.18 55.6222 518.262 55.7642C518.348 55.9034 518.456 55.9972 518.586 56.0455C518.72 56.0909 518.86 56.1136 519.008 56.1136C519.119 56.1136 519.21 56.108 519.281 56.0966C519.352 56.0824 519.409 56.071 519.451 56.0625L519.656 56.9659C519.588 56.9915 519.493 57.017 519.37 57.0426C519.248 57.071 519.093 57.0852 518.906 57.0852C518.622 57.0852 518.343 57.0241 518.071 56.902C517.801 56.7798 517.576 56.5938 517.397 56.3438C517.221 56.0938 517.133 55.7784 517.133 55.3977V48.8864ZM521.697 59.4545C521.527 59.4545 521.375 59.4403 521.241 59.4119C521.108 59.3864 521.015 59.3608 520.964 59.3352L521.22 58.4489C521.464 58.5114 521.68 58.5341 521.868 58.517C522.055 58.5 522.221 58.4162 522.366 58.2656C522.514 58.1179 522.649 57.8778 522.771 57.5455L522.958 57.0341L520.538 50.4545H521.629L523.436 55.6705H523.504L525.311 50.4545H526.402L523.623 57.9545C523.498 58.2926 523.343 58.5724 523.159 58.794C522.974 59.0185 522.76 59.1847 522.515 59.2926C522.274 59.4006 522.001 59.4545 521.697 59.4545Z" fill="black"/>
<rect x="472.5" y="153.5" width="102" height="26" rx="2.5" fill="#8EBEC9"/>
<rect x="472.5" y="153.5" width="102" height="26" rx="2.5" stroke="black"/>
<rect x="476.25" y="157.25" width="94.5" height="18.5" rx="1.75" fill="white"/>
<rect x="476.25" y="157.25" width="94.5" height="18.5" rx="1.75" stroke="#8D8D8D" stroke-width="0.5"/>
<path d="M482.057 171V162.273H485.108C485.716 162.273 486.217 162.378 486.612 162.588C487.007 162.795 487.301 163.075 487.494 163.428C487.688 163.777 487.784 164.165 487.784 164.591C487.784 164.966 487.717 165.276 487.584 165.52C487.453 165.764 487.28 165.957 487.064 166.099C486.851 166.241 486.619 166.347 486.369 166.415V166.5C486.636 166.517 486.905 166.611 487.175 166.781C487.445 166.952 487.67 167.196 487.852 167.514C488.034 167.832 488.125 168.222 488.125 168.682C488.125 169.119 488.026 169.513 487.827 169.862C487.628 170.212 487.314 170.489 486.885 170.693C486.456 170.898 485.898 171 485.21 171H482.057ZM483.114 170.062H485.21C485.901 170.062 486.391 169.929 486.68 169.662C486.973 169.392 487.119 169.065 487.119 168.682C487.119 168.386 487.044 168.114 486.893 167.864C486.743 167.611 486.528 167.409 486.25 167.259C485.972 167.105 485.642 167.028 485.261 167.028H483.114V170.062ZM483.114 166.108H485.074C485.392 166.108 485.679 166.045 485.935 165.92C486.193 165.795 486.398 165.619 486.548 165.392C486.702 165.165 486.778 164.898 486.778 164.591C486.778 164.207 486.645 163.882 486.378 163.615C486.111 163.345 485.688 163.21 485.108 163.21H483.114V166.108ZM489.725 171V164.455H490.731V171H489.725ZM490.237 163.364C490.04 163.364 489.871 163.297 489.729 163.163C489.59 163.03 489.521 162.869 489.521 162.682C489.521 162.494 489.59 162.334 489.729 162.2C489.871 162.067 490.04 162 490.237 162C490.433 162 490.6 162.067 490.739 162.2C490.881 162.334 490.952 162.494 490.952 162.682C490.952 162.869 490.881 163.03 490.739 163.163C490.6 163.297 490.433 163.364 490.237 163.364ZM493.578 167.062V171H492.573V164.455H493.544V165.477H493.63C493.783 165.145 494.016 164.878 494.328 164.676C494.641 164.472 495.044 164.369 495.539 164.369C495.982 164.369 496.37 164.46 496.702 164.642C497.034 164.821 497.293 165.094 497.478 165.46C497.662 165.824 497.755 166.284 497.755 166.841V171H496.749V166.909C496.749 166.395 496.615 165.994 496.348 165.707C496.081 165.418 495.715 165.273 495.249 165.273C494.928 165.273 494.641 165.342 494.388 165.482C494.138 165.621 493.941 165.824 493.796 166.091C493.651 166.358 493.578 166.682 493.578 167.062ZM502.064 171.136C501.518 171.136 501.037 170.999 500.619 170.723C500.202 170.445 499.875 170.053 499.639 169.547C499.403 169.038 499.286 168.438 499.286 167.744C499.286 167.057 499.403 166.46 499.639 165.955C499.875 165.449 500.203 165.058 500.624 164.783C501.044 164.507 501.53 164.369 502.081 164.369C502.507 164.369 502.844 164.44 503.091 164.582C503.341 164.722 503.531 164.881 503.662 165.06C503.795 165.236 503.899 165.381 503.973 165.494H504.058V162.273H505.064V171H504.092V169.994H503.973C503.899 170.114 503.794 170.264 503.658 170.446C503.521 170.625 503.327 170.786 503.074 170.928C502.821 171.067 502.484 171.136 502.064 171.136ZM502.2 170.233C502.604 170.233 502.945 170.128 503.223 169.918C503.501 169.705 503.713 169.411 503.858 169.036C504.003 168.658 504.075 168.222 504.075 167.727C504.075 167.239 504.004 166.811 503.862 166.445C503.72 166.075 503.51 165.788 503.232 165.584C502.953 165.376 502.609 165.273 502.2 165.273C501.774 165.273 501.419 165.382 501.135 165.601C500.854 165.817 500.642 166.111 500.5 166.483C500.361 166.852 500.291 167.267 500.291 167.727C500.291 168.193 500.362 168.616 500.504 168.997C500.649 169.375 500.862 169.676 501.143 169.901C501.428 170.122 501.78 170.233 502.2 170.233ZM507.045 171V164.455H508.051V171H507.045ZM507.557 163.364C507.361 163.364 507.192 163.297 507.05 163.163C506.911 163.03 506.841 162.869 506.841 162.682C506.841 162.494 506.911 162.334 507.05 162.2C507.192 162.067 507.361 162 507.557 162C507.753 162 507.92 162.067 508.06 162.2C508.202 162.334 508.273 162.494 508.273 162.682C508.273 162.869 508.202 163.03 508.06 163.163C507.92 163.297 507.753 163.364 507.557 163.364ZM510.899 167.062V171H509.893V164.455H510.865V165.477H510.95C511.103 165.145 511.336 164.878 511.649 164.676C511.961 164.472 512.365 164.369 512.859 164.369C513.302 164.369 513.69 164.46 514.022 164.642C514.355 164.821 514.613 165.094 514.798 165.46C514.983 165.824 515.075 166.284 515.075 166.841V171H514.069V166.909C514.069 166.395 513.936 165.994 513.669 165.707C513.402 165.418 513.035 165.273 512.569 165.273C512.248 165.273 511.961 165.342 511.708 165.482C511.458 165.621 511.261 165.824 511.116 166.091C510.971 166.358 510.899 166.682 510.899 167.062ZM519.555 173.591C519.069 173.591 518.651 173.528 518.302 173.403C517.952 173.281 517.661 173.119 517.428 172.918C517.198 172.719 517.015 172.506 516.879 172.278L517.68 171.716C517.771 171.835 517.886 171.972 518.025 172.125C518.164 172.281 518.354 172.416 518.596 172.53C518.84 172.646 519.16 172.705 519.555 172.705C520.083 172.705 520.519 172.577 520.863 172.321C521.207 172.065 521.379 171.665 521.379 171.119V169.79H521.293C521.219 169.909 521.114 170.057 520.978 170.233C520.844 170.406 520.651 170.561 520.398 170.697C520.148 170.831 519.81 170.898 519.384 170.898C518.856 170.898 518.381 170.773 517.961 170.523C517.543 170.273 517.212 169.909 516.968 169.432C516.727 168.955 516.606 168.375 516.606 167.693C516.606 167.023 516.724 166.439 516.96 165.942C517.195 165.442 517.523 165.055 517.944 164.783C518.364 164.507 518.85 164.369 519.401 164.369C519.827 164.369 520.165 164.44 520.415 164.582C520.668 164.722 520.862 164.881 520.995 165.06C521.131 165.236 521.237 165.381 521.31 165.494H521.413V164.455H522.384V171.188C522.384 171.75 522.256 172.207 522.001 172.56C521.748 172.915 521.407 173.175 520.978 173.339C520.552 173.507 520.077 173.591 519.555 173.591ZM519.521 169.994C519.924 169.994 520.265 169.902 520.543 169.717C520.822 169.533 521.033 169.267 521.178 168.92C521.323 168.574 521.396 168.159 521.396 167.676C521.396 167.205 521.325 166.788 521.183 166.428C521.04 166.067 520.83 165.784 520.552 165.58C520.273 165.375 519.93 165.273 519.521 165.273C519.094 165.273 518.739 165.381 518.455 165.597C518.174 165.812 517.962 166.102 517.82 166.466C517.681 166.83 517.612 167.233 517.612 167.676C517.612 168.131 517.683 168.533 517.825 168.882C517.969 169.229 518.183 169.501 518.464 169.7C518.748 169.896 519.1 169.994 519.521 169.994ZM529.526 171.153C529.112 171.153 528.735 171.075 528.397 170.919C528.059 170.76 527.79 170.531 527.592 170.233C527.393 169.932 527.293 169.568 527.293 169.142C527.293 168.767 527.367 168.463 527.515 168.23C527.663 167.994 527.86 167.81 528.107 167.676C528.354 167.543 528.627 167.443 528.925 167.378C529.227 167.31 529.529 167.256 529.833 167.216C530.231 167.165 530.553 167.126 530.8 167.101C531.05 167.072 531.232 167.026 531.346 166.96C531.462 166.895 531.521 166.781 531.521 166.619V166.585C531.521 166.165 531.406 165.838 531.175 165.605C530.948 165.372 530.603 165.256 530.14 165.256C529.66 165.256 529.283 165.361 529.011 165.571C528.738 165.781 528.546 166.006 528.435 166.244L527.481 165.903C527.651 165.506 527.879 165.196 528.163 164.974C528.45 164.75 528.762 164.594 529.1 164.506C529.441 164.415 529.776 164.369 530.106 164.369C530.316 164.369 530.558 164.395 530.83 164.446C531.106 164.494 531.371 164.595 531.627 164.749C531.886 164.902 532.1 165.134 532.271 165.443C532.441 165.753 532.526 166.168 532.526 166.688V171H531.521V170.114H531.469C531.401 170.256 531.288 170.408 531.129 170.57C530.969 170.732 530.758 170.869 530.494 170.983C530.229 171.097 529.907 171.153 529.526 171.153ZM529.68 170.25C530.077 170.25 530.413 170.172 530.685 170.016C530.961 169.859 531.168 169.658 531.308 169.411C531.45 169.163 531.521 168.903 531.521 168.631V167.71C531.478 167.761 531.384 167.808 531.239 167.851C531.097 167.891 530.933 167.926 530.745 167.957C530.56 167.986 530.38 168.011 530.204 168.034C530.031 168.054 529.89 168.071 529.782 168.085C529.521 168.119 529.276 168.175 529.049 168.251C528.825 168.325 528.643 168.437 528.504 168.588C528.367 168.736 528.299 168.937 528.299 169.193C528.299 169.543 528.428 169.807 528.687 169.986C528.948 170.162 529.279 170.25 529.68 170.25ZM537.277 164.455V165.307H533.748V164.455H537.277ZM534.805 171V163.551C534.805 163.176 534.893 162.864 535.069 162.614C535.245 162.364 535.474 162.176 535.755 162.051C536.037 161.926 536.333 161.864 536.646 161.864C536.893 161.864 537.095 161.884 537.251 161.923C537.407 161.963 537.524 162 537.6 162.034L537.311 162.903C537.26 162.886 537.189 162.865 537.098 162.839C537.01 162.814 536.893 162.801 536.748 162.801C536.416 162.801 536.176 162.885 536.028 163.053C535.883 163.22 535.811 163.466 535.811 163.79V171H534.805ZM541.601 164.455V165.307H538.072V164.455H541.601ZM539.129 171V163.551C539.129 163.176 539.217 162.864 539.393 162.614C539.57 162.364 539.798 162.176 540.08 162.051C540.361 161.926 540.658 161.864 540.97 161.864C541.217 161.864 541.419 161.884 541.575 161.923C541.732 161.963 541.848 162 541.925 162.034L541.635 162.903C541.584 162.886 541.513 162.865 541.422 162.839C541.334 162.814 541.217 162.801 541.072 162.801C540.74 162.801 540.5 162.885 540.352 163.053C540.207 163.22 540.135 163.466 540.135 163.79V171H539.129ZM543.01 171V164.455H544.016V171H543.01ZM543.522 163.364C543.326 163.364 543.157 163.297 543.015 163.163C542.875 163.03 542.806 162.869 542.806 162.682C542.806 162.494 542.875 162.334 543.015 162.2C543.157 162.067 543.326 162 543.522 162C543.718 162 543.885 162.067 544.025 162.2C544.167 162.334 544.238 162.494 544.238 162.682C544.238 162.869 544.167 163.03 544.025 163.163C543.885 163.297 543.718 163.364 543.522 163.364ZM546.864 167.062V171H545.858V164.455H546.83V165.477H546.915C547.068 165.145 547.301 164.878 547.614 164.676C547.926 164.472 548.33 164.369 548.824 164.369C549.267 164.369 549.655 164.46 549.987 164.642C550.32 164.821 550.578 165.094 550.763 165.46C550.947 165.824 551.04 166.284 551.04 166.841V171H550.034V166.909C550.034 166.395 549.901 165.994 549.634 165.707C549.366 165.418 549 165.273 548.534 165.273C548.213 165.273 547.926 165.342 547.673 165.482C547.423 165.621 547.226 165.824 547.081 166.091C546.936 166.358 546.864 166.682 546.864 167.062ZM552.877 171V164.455H553.883V171H552.877ZM553.389 163.364C553.193 163.364 553.024 163.297 552.882 163.163C552.743 163.03 552.673 162.869 552.673 162.682C552.673 162.494 552.743 162.334 552.882 162.2C553.024 162.067 553.193 162 553.389 162C553.585 162 553.752 162.067 553.892 162.2C554.034 162.334 554.105 162.494 554.105 162.682C554.105 162.869 554.034 163.03 553.892 163.163C553.752 163.297 553.585 163.364 553.389 163.364ZM558.572 164.455V165.307H555.18V164.455H558.572ZM556.168 162.886H557.174V169.125C557.174 169.409 557.215 169.622 557.298 169.764C557.383 169.903 557.491 169.997 557.621 170.045C557.755 170.091 557.896 170.114 558.043 170.114C558.154 170.114 558.245 170.108 558.316 170.097C558.387 170.082 558.444 170.071 558.487 170.062L558.691 170.966C558.623 170.991 558.528 171.017 558.406 171.043C558.283 171.071 558.129 171.085 557.941 171.085C557.657 171.085 557.379 171.024 557.106 170.902C556.836 170.78 556.612 170.594 556.433 170.344C556.256 170.094 556.168 169.778 556.168 169.398V162.886ZM560.732 173.455C560.562 173.455 560.41 173.44 560.276 173.412C560.143 173.386 560.05 173.361 559.999 173.335L560.255 172.449C560.499 172.511 560.715 172.534 560.903 172.517C561.09 172.5 561.256 172.416 561.401 172.266C561.549 172.118 561.684 171.878 561.806 171.545L561.994 171.034L559.573 164.455H560.664L562.471 169.67H562.539L564.346 164.455H565.437L562.658 171.955C562.533 172.293 562.379 172.572 562.194 172.794C562.009 173.018 561.795 173.185 561.55 173.293C561.309 173.401 561.036 173.455 560.732 173.455Z" fill="black"/>
<rect x="472.5" y="115.5" width="85" height="26" rx="2.5" fill="#8EBEC9"/>
<rect x="472.5" y="115.5" width="85" height="26" rx="2.5" stroke="black"/>
<rect x="476.25" y="119.25" width="77.5" height="18.5" rx="1.75" fill="white"/>
<rect x="476.25" y="119.25" width="77.5" height="18.5" rx="1.75" stroke="#8D8D8D" stroke-width="0.5"/>
<path d="M482.057 133V124.273H483.114V132.062H487.17V133H482.057ZM491.33 133.136C490.739 133.136 490.22 132.996 489.774 132.714C489.331 132.433 488.984 132.04 488.734 131.534C488.487 131.028 488.364 130.437 488.364 129.761C488.364 129.08 488.487 128.484 488.734 127.976C488.984 127.467 489.331 127.072 489.774 126.791C490.22 126.51 490.739 126.369 491.33 126.369C491.92 126.369 492.438 126.51 492.881 126.791C493.327 127.072 493.673 127.467 493.92 127.976C494.17 128.484 494.295 129.08 494.295 129.761C494.295 130.437 494.17 131.028 493.92 131.534C493.673 132.04 493.327 132.433 492.881 132.714C492.438 132.996 491.92 133.136 491.33 133.136ZM491.33 132.233C491.778 132.233 492.148 132.118 492.438 131.888C492.727 131.658 492.942 131.355 493.081 130.98C493.22 130.605 493.29 130.199 493.29 129.761C493.29 129.324 493.22 128.916 493.081 128.538C492.942 128.161 492.727 127.855 492.438 127.622C492.148 127.389 491.778 127.273 491.33 127.273C490.881 127.273 490.511 127.389 490.222 127.622C489.932 127.855 489.717 128.161 489.578 128.538C489.439 128.916 489.369 129.324 489.369 129.761C489.369 130.199 489.439 130.605 489.578 130.98C489.717 131.355 489.932 131.658 490.222 131.888C490.511 132.118 490.881 132.233 491.33 132.233ZM498.49 133.136C497.876 133.136 497.348 132.991 496.904 132.702C496.461 132.412 496.12 132.013 495.882 131.504C495.643 130.996 495.524 130.415 495.524 129.761C495.524 129.097 495.646 128.51 495.89 128.001C496.137 127.49 496.481 127.091 496.922 126.804C497.365 126.514 497.882 126.369 498.473 126.369C498.933 126.369 499.348 126.455 499.717 126.625C500.086 126.795 500.389 127.034 500.625 127.341C500.86 127.648 501.007 128.006 501.064 128.415H500.058C499.981 128.116 499.811 127.852 499.547 127.622C499.285 127.389 498.933 127.273 498.49 127.273C498.098 127.273 497.754 127.375 497.458 127.58C497.166 127.781 496.937 128.067 496.772 128.436C496.61 128.803 496.529 129.233 496.529 129.727C496.529 130.233 496.609 130.673 496.768 131.048C496.93 131.423 497.157 131.714 497.45 131.922C497.745 132.129 498.092 132.233 498.49 132.233C498.751 132.233 498.988 132.188 499.201 132.097C499.414 132.006 499.595 131.875 499.743 131.705C499.89 131.534 499.995 131.33 500.058 131.091H501.064C501.007 131.477 500.866 131.825 500.642 132.135C500.42 132.442 500.126 132.686 499.76 132.868C499.396 133.047 498.973 133.136 498.49 133.136ZM504.46 133.153C504.045 133.153 503.669 133.075 503.331 132.919C502.993 132.76 502.724 132.531 502.525 132.233C502.326 131.932 502.227 131.568 502.227 131.142C502.227 130.767 502.301 130.463 502.449 130.23C502.596 129.994 502.794 129.81 503.041 129.676C503.288 129.543 503.561 129.443 503.859 129.378C504.16 129.31 504.463 129.256 504.767 129.216C505.164 129.165 505.487 129.126 505.734 129.101C505.984 129.072 506.166 129.026 506.279 128.96C506.396 128.895 506.454 128.781 506.454 128.619V128.585C506.454 128.165 506.339 127.838 506.109 127.605C505.882 127.372 505.537 127.256 505.074 127.256C504.593 127.256 504.217 127.361 503.944 127.571C503.672 127.781 503.48 128.006 503.369 128.244L502.414 127.903C502.585 127.506 502.812 127.196 503.096 126.974C503.383 126.75 503.696 126.594 504.034 126.506C504.375 126.415 504.71 126.369 505.039 126.369C505.25 126.369 505.491 126.395 505.764 126.446C506.039 126.494 506.305 126.595 506.561 126.749C506.819 126.902 507.034 127.134 507.204 127.443C507.375 127.753 507.46 128.168 507.46 128.688V133H506.454V132.114H506.403C506.335 132.256 506.221 132.408 506.062 132.57C505.903 132.732 505.691 132.869 505.427 132.983C505.163 133.097 504.841 133.153 504.46 133.153ZM504.613 132.25C505.011 132.25 505.346 132.172 505.619 132.016C505.895 131.859 506.102 131.658 506.241 131.411C506.383 131.163 506.454 130.903 506.454 130.631V129.71C506.412 129.761 506.318 129.808 506.173 129.851C506.031 129.891 505.866 129.926 505.679 129.957C505.494 129.986 505.314 130.011 505.137 130.034C504.964 130.054 504.824 130.071 504.716 130.085C504.454 130.119 504.21 130.175 503.983 130.251C503.758 130.325 503.576 130.437 503.437 130.588C503.301 130.736 503.233 130.937 503.233 131.193C503.233 131.543 503.362 131.807 503.62 131.986C503.882 132.162 504.213 132.25 504.613 132.25ZM510.301 124.273V133H509.295V124.273H510.301ZM512.143 133V126.455H513.149V133H512.143ZM512.654 125.364C512.458 125.364 512.289 125.297 512.147 125.163C512.008 125.03 511.939 124.869 511.939 124.682C511.939 124.494 512.008 124.334 512.147 124.2C512.289 124.067 512.458 124 512.654 124C512.85 124 513.018 124.067 513.157 124.2C513.299 124.334 513.37 124.494 513.37 124.682C513.37 124.869 513.299 125.03 513.157 125.163C513.018 125.297 512.85 125.364 512.654 125.364ZM514.803 133V132.233L518.519 127.46V127.392H514.923V126.455H519.815V127.256L516.201 131.994V132.062H519.934V133H514.803ZM523.409 133.153C522.994 133.153 522.618 133.075 522.28 132.919C521.942 132.76 521.673 132.531 521.474 132.233C521.276 131.932 521.176 131.568 521.176 131.142C521.176 130.767 521.25 130.463 521.398 130.23C521.545 129.994 521.743 129.81 521.99 129.676C522.237 129.543 522.51 129.443 522.808 129.378C523.109 129.31 523.412 129.256 523.716 129.216C524.114 129.165 524.436 129.126 524.683 129.101C524.933 129.072 525.115 129.026 525.229 128.96C525.345 128.895 525.403 128.781 525.403 128.619V128.585C525.403 128.165 525.288 127.838 525.058 127.605C524.831 127.372 524.486 127.256 524.023 127.256C523.543 127.256 523.166 127.361 522.893 127.571C522.621 127.781 522.429 128.006 522.318 128.244L521.364 127.903C521.534 127.506 521.761 127.196 522.045 126.974C522.332 126.75 522.645 126.594 522.983 126.506C523.324 126.415 523.659 126.369 523.989 126.369C524.199 126.369 524.44 126.395 524.713 126.446C524.989 126.494 525.254 126.595 525.51 126.749C525.768 126.902 525.983 127.134 526.153 127.443C526.324 127.753 526.409 128.168 526.409 128.688V133H525.403V132.114H525.352C525.284 132.256 525.17 132.408 525.011 132.57C524.852 132.732 524.641 132.869 524.376 132.983C524.112 133.097 523.79 133.153 523.409 133.153ZM523.562 132.25C523.96 132.25 524.295 132.172 524.568 132.016C524.844 131.859 525.051 131.658 525.19 131.411C525.332 131.163 525.403 130.903 525.403 130.631V129.71C525.361 129.761 525.267 129.808 525.122 129.851C524.98 129.891 524.815 129.926 524.628 129.957C524.443 129.986 524.263 130.011 524.087 130.034C523.913 130.054 523.773 130.071 523.665 130.085C523.403 130.119 523.159 130.175 522.932 130.251C522.707 130.325 522.526 130.437 522.386 130.588C522.25 130.736 522.182 130.937 522.182 131.193C522.182 131.543 522.311 131.807 522.57 131.986C522.831 132.162 523.162 132.25 523.562 132.25ZM531.091 126.455V127.307H527.699V126.455H531.091ZM528.688 124.886H529.694V131.125C529.694 131.409 529.735 131.622 529.817 131.764C529.902 131.903 530.01 131.997 530.141 132.045C530.275 132.091 530.415 132.114 530.563 132.114C530.674 132.114 530.765 132.108 530.836 132.097C530.907 132.082 530.963 132.071 531.006 132.062L531.211 132.966C531.142 132.991 531.047 133.017 530.925 133.043C530.803 133.071 530.648 133.085 530.461 133.085C530.176 133.085 529.898 133.024 529.625 132.902C529.355 132.78 529.131 132.594 528.952 132.344C528.776 132.094 528.688 131.778 528.688 131.398V124.886ZM532.604 133V126.455H533.61V133H532.604ZM533.115 125.364C532.919 125.364 532.75 125.297 532.608 125.163C532.469 125.03 532.4 124.869 532.4 124.682C532.4 124.494 532.469 124.334 532.608 124.2C532.75 124.067 532.919 124 533.115 124C533.311 124 533.479 124.067 533.618 124.2C533.76 124.334 533.831 124.494 533.831 124.682C533.831 124.869 533.76 125.03 533.618 125.163C533.479 125.297 533.311 125.364 533.115 125.364ZM538.111 133.136C537.52 133.136 537.001 132.996 536.555 132.714C536.112 132.433 535.766 132.04 535.516 131.534C535.268 131.028 535.145 130.437 535.145 129.761C535.145 129.08 535.268 128.484 535.516 127.976C535.766 127.467 536.112 127.072 536.555 126.791C537.001 126.51 537.52 126.369 538.111 126.369C538.702 126.369 539.219 126.51 539.662 126.791C540.108 127.072 540.455 127.467 540.702 127.976C540.952 128.484 541.077 129.08 541.077 129.761C541.077 130.437 540.952 131.028 540.702 131.534C540.455 132.04 540.108 132.433 539.662 132.714C539.219 132.996 538.702 133.136 538.111 133.136ZM538.111 132.233C538.56 132.233 538.929 132.118 539.219 131.888C539.509 131.658 539.723 131.355 539.862 130.98C540.001 130.605 540.071 130.199 540.071 129.761C540.071 129.324 540.001 128.916 539.862 128.538C539.723 128.161 539.509 127.855 539.219 127.622C538.929 127.389 538.56 127.273 538.111 127.273C537.662 127.273 537.293 127.389 537.003 127.622C536.713 127.855 536.499 128.161 536.359 128.538C536.22 128.916 536.151 129.324 536.151 129.761C536.151 130.199 536.22 130.605 536.359 130.98C536.499 131.355 536.713 131.658 537.003 131.888C537.293 132.118 537.662 132.233 538.111 132.233ZM543.618 129.062V133H542.612V126.455H543.583V127.477H543.669C543.822 127.145 544.055 126.878 544.368 126.676C544.68 126.472 545.083 126.369 545.578 126.369C546.021 126.369 546.409 126.46 546.741 126.642C547.074 126.821 547.332 127.094 547.517 127.46C547.701 127.824 547.794 128.284 547.794 128.841V133H546.788V128.909C546.788 128.395 546.654 127.994 546.387 127.707C546.12 127.418 545.754 127.273 545.288 127.273C544.967 127.273 544.68 127.342 544.427 127.482C544.177 127.621 543.98 127.824 543.835 128.091C543.69 128.358 543.618 128.682 543.618 129.062Z" fill="black"/>
<rect x="0.5" y="152.5" width="105" height="27" rx="2.5" fill="#EAC293"/>
<rect x="0.5" y="152.5" width="105" height="27" rx="2.5" stroke="black"/>
<rect x="4.25" y="156.25" width="19.5" height="19.5" rx="1.75" fill="white"/>
<rect x="4.25" y="156.25" width="19.5" height="19.5" rx="1.75" stroke="#8D8D8D" stroke-width="0.5"/>
<path d="M12.788 170.096C12.332 170.096 11.932 170.084 11.588 170.06C11.252 170.036 10.916 170.008 10.58 169.976V161.624C10.956 161.584 11.324 161.556 11.684 161.54C12.044 161.516 12.456 161.504 12.92 161.504C13.64 161.504 14.26 161.616 14.78 161.84C15.308 162.064 15.74 162.372 16.076 162.764C16.42 163.156 16.672 163.612 16.832 164.132C17 164.644 17.084 165.196 17.084 165.788C17.084 166.372 17 166.924 16.832 167.444C16.664 167.964 16.404 168.424 16.052 168.824C15.708 169.216 15.264 169.528 14.72 169.76C14.184 169.984 13.54 170.096 12.788 170.096ZM12.824 169.1C13.544 169.1 14.132 168.96 14.588 168.68C15.044 168.4 15.38 168.012 15.596 167.516C15.812 167.012 15.92 166.436 15.92 165.788C15.92 165.212 15.812 164.672 15.596 164.168C15.38 163.664 15.048 163.26 14.6 162.956C14.152 162.644 13.58 162.488 12.884 162.488C12.652 162.488 12.44 162.496 12.248 162.512C12.056 162.52 11.88 162.532 11.72 162.548V169.04C11.888 169.064 12.064 169.08 12.248 169.088C12.432 169.096 12.624 169.1 12.824 169.1Z" fill="black"/>
<rect x="30.25" y="156.25" width="19.5" height="19.5" rx="1.75" fill="white"/>
<rect x="30.25" y="156.25" width="19.5" height="19.5" rx="1.75" stroke="#8D8D8D" stroke-width="0.5"/>
<path d="M39.5 170.144C38.892 170.144 38.344 170.032 37.856 169.808C37.376 169.576 36.968 169.264 36.632 168.872C36.296 168.472 36.04 168.008 35.864 167.48C35.688 166.952 35.6 166.388 35.6 165.788C35.6 164.964 35.756 164.228 36.068 163.58C36.38 162.924 36.824 162.408 37.4 162.032C37.984 161.648 38.684 161.456 39.5 161.456C40.108 161.456 40.652 161.568 41.132 161.792C41.62 162.016 42.032 162.328 42.368 162.728C42.704 163.128 42.96 163.588 43.136 164.108C43.32 164.628 43.412 165.188 43.412 165.788C43.412 166.412 43.324 166.956 43.148 167.42C42.972 167.876 42.764 168.272 42.524 168.608L43.592 169.196L43.076 170.144L41.912 169.28C41.616 169.528 41.268 169.736 40.868 169.904C40.468 170.064 40.012 170.144 39.5 170.144ZM39.476 169.16C39.804 169.16 40.1 169.12 40.364 169.04C40.636 168.96 40.868 168.86 41.06 168.74L40.148 168.164L40.628 167.288L41.708 168.068C41.9 167.756 42.036 167.416 42.116 167.048C42.204 166.672 42.248 166.252 42.248 165.788C42.248 165.356 42.184 164.94 42.056 164.54C41.936 164.14 41.756 163.784 41.516 163.472C41.284 163.152 40.996 162.9 40.652 162.716C40.316 162.532 39.932 162.44 39.5 162.44C38.924 162.44 38.432 162.588 38.024 162.884C37.616 163.172 37.304 163.568 37.088 164.072C36.872 164.576 36.764 165.148 36.764 165.788C36.764 166.22 36.824 166.64 36.944 167.048C37.064 167.448 37.24 167.808 37.472 168.128C37.704 168.448 37.988 168.7 38.324 168.884C38.66 169.068 39.044 169.16 39.476 169.16Z" fill="black"/>
<rect x="56.25" y="156.25" width="19.5" height="19.5" rx="1.75" fill="white"/>
<rect x="56.25" y="156.25" width="19.5" height="19.5" rx="1.75" stroke="#8D8D8D" stroke-width="0.5"/>
<path d="M68.3 170.144L64.22 166.136V170H63.08V161.6H64.22V165.428L67.796 161.564L68.564 162.272L65.288 165.68L69.092 169.328L68.3 170.144Z" fill="black"/>
<rect x="82.25" y="156.25" width="19.5" height="19.5" rx="1.75" fill="white"/>
<rect x="82.25" y="156.25" width="19.5" height="19.5" rx="1.75" stroke="#8D8D8D" stroke-width="0.5"/>
<path d="M88.58 170V161.6H90.092L93.8 168.584V161.6H94.88V170H93.392L89.66 163.064V170H88.58Z" fill="black"/>
<rect x="0.5" y="0.5" width="105" height="27" rx="2.5" fill="#EAC293"/>
<rect x="0.5" y="0.5" width="105" height="27" rx="2.5" stroke="black"/>
<rect x="4.25" y="4.25" width="19.5" height="19.5" rx="1.75" fill="white"/>
<rect x="4.25" y="4.25" width="19.5" height="19.5" rx="1.75" stroke="#8D8D8D" stroke-width="0.5"/>
<path d="M13.5 18.144C12.892 18.144 12.344 18.032 11.856 17.808C11.376 17.576 10.968 17.264 10.632 16.872C10.296 16.472 10.04 16.008 9.864 15.48C9.688 14.952 9.6 14.388 9.6 13.788C9.6 12.964 9.756 12.228 10.068 11.58C10.38 10.924 10.824 10.408 11.4 10.032C11.984 9.648 12.684 9.456 13.5 9.456C14.108 9.456 14.652 9.568 15.132 9.792C15.62 10.016 16.032 10.328 16.368 10.728C16.704 11.128 16.96 11.588 17.136 12.108C17.32 12.628 17.412 13.188 17.412 13.788C17.412 14.412 17.324 14.956 17.148 15.42C16.972 15.876 16.764 16.272 16.524 16.608L17.592 17.196L17.076 18.144L15.912 17.28C15.616 17.528 15.268 17.736 14.868 17.904C14.468 18.064 14.012 18.144 13.5 18.144ZM13.476 17.16C13.804 17.16 14.1 17.12 14.364 17.04C14.636 16.96 14.868 16.86 15.06 16.74L14.148 16.164L14.628 15.288L15.708 16.068C15.9 15.756 16.036 15.416 16.116 15.048C16.204 14.672 16.248 14.252 16.248 13.788C16.248 13.356 16.184 12.94 16.056 12.54C15.936 12.14 15.756 11.784 15.516 11.472C15.284 11.152 14.996 10.9 14.652 10.716C14.316 10.532 13.932 10.44 13.5 10.44C12.924 10.44 12.432 10.588 12.024 10.884C11.616 11.172 11.304 11.568 11.088 12.072C10.872 12.576 10.764 13.148 10.764 13.788C10.764 14.22 10.824 14.64 10.944 15.048C11.064 15.448 11.24 15.808 11.472 16.128C11.704 16.448 11.988 16.7 12.324 16.884C12.66 17.068 13.044 17.16 13.476 17.16Z" fill="black"/>
<rect x="30.25" y="4.25" width="19.5" height="19.5" rx="1.75" fill="white"/>
<rect x="30.25" y="4.25" width="19.5" height="19.5" rx="1.75" stroke="#8D8D8D" stroke-width="0.5"/>
<path d="M42.352 18.12L41.416 15.72H37.528L36.592 18.096L35.62 17.7L38.908 9.6H40.156L43.396 17.7L42.352 18.12ZM37.888 14.76H41.044L39.472 10.728L37.888 14.76Z" fill="black"/>
<rect x="56.25" y="4.25" width="19.5" height="19.5" rx="1.75" fill="white"/>
<rect x="56.25" y="4.25" width="19.5" height="19.5" rx="1.75" stroke="#8D8D8D" stroke-width="0.5"/>
<path d="M63.58 18V9.6H68.62V10.584H64.72V13.14H68.08V14.1H64.72V17.016H68.62V18H63.58Z" fill="black"/>
<rect x="82.25" y="4.25" width="19.5" height="19.5" rx="1.75" fill="white"/>
<rect x="82.25" y="4.25" width="19.5" height="19.5" rx="1.75" stroke="#8D8D8D" stroke-width="0.5"/>
<path d="M91.08 18V9.6H92.22V18H91.08Z" fill="black"/>
<rect x="472.5" y="1.5" width="85" height="26" rx="2.5" fill="#8EBEC9"/>
<rect x="472.5" y="1.5" width="85" height="26" rx="2.5" stroke="black"/>
<rect x="476.25" y="5.25" width="77.5" height="18.5" rx="1.75" fill="white"/>
<rect x="476.25" y="5.25" width="77.5" height="18.5" rx="1.75" stroke="#8D8D8D" stroke-width="0.5"/>
<path d="M482.057 19V10.2727H485.108C485.716 10.2727 486.217 10.3778 486.612 10.5881C487.007 10.7955 487.301 11.0753 487.494 11.4276C487.688 11.777 487.784 12.1648 487.784 12.5909C487.784 12.9659 487.717 13.2756 487.584 13.5199C487.453 13.7642 487.28 13.9574 487.064 14.0994C486.851 14.2415 486.619 14.3466 486.369 14.4148V14.5C486.636 14.517 486.905 14.6108 487.175 14.7812C487.445 14.9517 487.67 15.196 487.852 15.5142C488.034 15.8324 488.125 16.2216 488.125 16.6818C488.125 17.1193 488.026 17.5128 487.827 17.8622C487.628 18.2116 487.314 18.4886 486.885 18.6932C486.456 18.8977 485.898 19 485.21 19H482.057ZM483.114 18.0625H485.21C485.901 18.0625 486.391 17.929 486.68 17.6619C486.973 17.392 487.119 17.0653 487.119 16.6818C487.119 16.3864 487.044 16.1136 486.893 15.8636C486.743 15.6108 486.528 15.4091 486.25 15.2585C485.972 15.1051 485.642 15.0284 485.261 15.0284H483.114V18.0625ZM483.114 14.108H485.074C485.392 14.108 485.679 14.0455 485.935 13.9205C486.193 13.7955 486.398 13.6193 486.548 13.392C486.702 13.1648 486.778 12.8977 486.778 12.5909C486.778 12.2074 486.645 11.8821 486.378 11.6151C486.111 11.3452 485.688 11.2102 485.108 11.2102H483.114V14.108ZM489.725 19V12.4545H490.731V19H489.725ZM490.237 11.3636C490.04 11.3636 489.871 11.2969 489.729 11.1634C489.59 11.0298 489.521 10.8693 489.521 10.6818C489.521 10.4943 489.59 10.3338 489.729 10.2003C489.871 10.0668 490.04 10 490.237 10C490.433 10 490.6 10.0668 490.739 10.2003C490.881 10.3338 490.952 10.4943 490.952 10.6818C490.952 10.8693 490.881 11.0298 490.739 11.1634C490.6 11.2969 490.433 11.3636 490.237 11.3636ZM493.578 15.0625V19H492.573V12.4545H493.544V13.4773H493.63C493.783 13.1449 494.016 12.8778 494.328 12.6761C494.641 12.4716 495.044 12.3693 495.539 12.3693C495.982 12.3693 496.37 12.4602 496.702 12.642C497.034 12.821 497.293 13.0938 497.478 13.4602C497.662 13.8239 497.755 14.2841 497.755 14.8409V19H496.749V14.9091C496.749 14.3949 496.615 13.9943 496.348 13.7074C496.081 13.4176 495.715 13.2727 495.249 13.2727C494.928 13.2727 494.641 13.3423 494.388 13.4815C494.138 13.6207 493.941 13.8239 493.796 14.0909C493.651 14.358 493.578 14.6818 493.578 15.0625ZM502.064 19.1364C501.518 19.1364 501.037 18.9986 500.619 18.723C500.202 18.4446 499.875 18.0526 499.639 17.5469C499.403 17.0384 499.286 16.4375 499.286 15.7443C499.286 15.0568 499.403 14.4602 499.639 13.9545C499.875 13.4489 500.203 13.0582 500.624 12.7827C501.044 12.5071 501.53 12.3693 502.081 12.3693C502.507 12.3693 502.844 12.4403 503.091 12.5824C503.341 12.7216 503.531 12.8807 503.662 13.0597C503.795 13.2358 503.899 13.3807 503.973 13.4943H504.058V10.2727H505.064V19H504.092V17.9943H503.973C503.899 18.1136 503.794 18.2642 503.658 18.446C503.521 18.625 503.327 18.7855 503.074 18.9276C502.821 19.0668 502.484 19.1364 502.064 19.1364ZM502.2 18.233C502.604 18.233 502.945 18.1278 503.223 17.9176C503.501 17.7045 503.713 17.4105 503.858 17.0355C504.003 16.6577 504.075 16.2216 504.075 15.7273C504.075 15.2386 504.004 14.8111 503.862 14.4446C503.72 14.0753 503.51 13.7884 503.232 13.5838C502.953 13.3764 502.609 13.2727 502.2 13.2727C501.774 13.2727 501.419 13.3821 501.135 13.6009C500.854 13.8168 500.642 14.1108 500.5 14.483C500.361 14.8523 500.291 15.267 500.291 15.7273C500.291 16.1932 500.362 16.6165 500.504 16.9972C500.649 17.375 500.862 17.6761 501.143 17.9006C501.428 18.1222 501.78 18.233 502.2 18.233ZM507.045 19V12.4545H508.051V19H507.045ZM507.557 11.3636C507.361 11.3636 507.192 11.2969 507.05 11.1634C506.911 11.0298 506.841 10.8693 506.841 10.6818C506.841 10.4943 506.911 10.3338 507.05 10.2003C507.192 10.0668 507.361 10 507.557 10C507.753 10 507.92 10.0668 508.06 10.2003C508.202 10.3338 508.273 10.4943 508.273 10.6818C508.273 10.8693 508.202 11.0298 508.06 11.1634C507.92 11.2969 507.753 11.3636 507.557 11.3636ZM510.899 15.0625V19H509.893V12.4545H510.865V13.4773H510.95C511.103 13.1449 511.336 12.8778 511.649 12.6761C511.961 12.4716 512.365 12.3693 512.859 12.3693C513.302 12.3693 513.69 12.4602 514.022 12.642C514.355 12.821 514.613 13.0938 514.798 13.4602C514.983 13.8239 515.075 14.2841 515.075 14.8409V19H514.069V14.9091C514.069 14.3949 513.936 13.9943 513.669 13.7074C513.402 13.4176 513.035 13.2727 512.569 13.2727C512.248 13.2727 511.961 13.3423 511.708 13.4815C511.458 13.6207 511.261 13.8239 511.116 14.0909C510.971 14.358 510.899 14.6818 510.899 15.0625ZM519.555 21.5909C519.069 21.5909 518.651 21.5284 518.302 21.4034C517.952 21.2812 517.661 21.1193 517.428 20.9176C517.198 20.7188 517.015 20.5057 516.879 20.2784L517.68 19.7159C517.771 19.8352 517.886 19.9716 518.025 20.125C518.164 20.2812 518.354 20.4162 518.596 20.5298C518.84 20.6463 519.16 20.7045 519.555 20.7045C520.083 20.7045 520.519 20.5767 520.863 20.321C521.207 20.0653 521.379 19.6648 521.379 19.1193V17.7898H521.293C521.219 17.9091 521.114 18.0568 520.978 18.233C520.844 18.4062 520.651 18.5611 520.398 18.6974C520.148 18.831 519.81 18.8977 519.384 18.8977C518.856 18.8977 518.381 18.7727 517.961 18.5227C517.543 18.2727 517.212 17.9091 516.968 17.4318C516.727 16.9545 516.606 16.375 516.606 15.6932C516.606 15.0227 516.724 14.4389 516.96 13.9418C517.195 13.4418 517.523 13.0554 517.944 12.7827C518.364 12.5071 518.85 12.3693 519.401 12.3693C519.827 12.3693 520.165 12.4403 520.415 12.5824C520.668 12.7216 520.862 12.8807 520.995 13.0597C521.131 13.2358 521.237 13.3807 521.31 13.4943H521.413V12.4545H522.384V19.1875C522.384 19.75 522.256 20.2074 522.001 20.5597C521.748 20.9148 521.407 21.1747 520.978 21.3395C520.552 21.5071 520.077 21.5909 519.555 21.5909ZM519.521 17.9943C519.924 17.9943 520.265 17.902 520.543 17.7173C520.822 17.5327 521.033 17.267 521.178 16.9205C521.323 16.5739 521.396 16.1591 521.396 15.6761C521.396 15.2045 521.325 14.7884 521.183 14.4276C521.04 14.0668 520.83 13.7841 520.552 13.5795C520.273 13.375 519.93 13.2727 519.521 13.2727C519.094 13.2727 518.739 13.3807 518.455 13.5966C518.174 13.8125 517.962 14.1023 517.82 14.4659C517.681 14.8295 517.612 15.233 517.612 15.6761C517.612 16.1307 517.683 16.5327 517.825 16.8821C517.969 17.2287 518.183 17.5014 518.464 17.7003C518.748 17.8963 519.1 17.9943 519.521 17.9943ZM532.509 12.4545C532.458 12.0227 532.251 11.6875 531.887 11.4489C531.523 11.2102 531.077 11.0909 530.549 11.0909C530.163 11.0909 529.825 11.1534 529.535 11.2784C529.248 11.4034 529.023 11.5753 528.862 11.794C528.702 12.0128 528.623 12.2614 528.623 12.5398C528.623 12.7727 528.678 12.973 528.789 13.1406C528.903 13.3054 529.048 13.4432 529.224 13.554C529.4 13.6619 529.585 13.7514 529.778 13.8224C529.971 13.8906 530.148 13.946 530.31 13.9886L531.197 14.2273C531.424 14.2869 531.677 14.3693 531.955 14.4744C532.237 14.5795 532.505 14.723 532.761 14.9048C533.019 15.0838 533.232 15.3139 533.4 15.5952C533.567 15.8764 533.651 16.2216 533.651 16.6307C533.651 17.1023 533.528 17.5284 533.281 17.9091C533.036 18.2898 532.678 18.5923 532.207 18.8168C531.738 19.0412 531.168 19.1534 530.498 19.1534C529.873 19.1534 529.332 19.0526 528.874 18.8509C528.42 18.6491 528.062 18.3679 527.8 18.0071C527.542 17.6463 527.396 17.2273 527.362 16.75H528.452C528.481 17.0795 528.592 17.3523 528.785 17.5682C528.981 17.7812 529.228 17.9403 529.526 18.0455C529.827 18.1477 530.151 18.1989 530.498 18.1989C530.901 18.1989 531.263 18.1335 531.585 18.0028C531.906 17.8693 532.16 17.6847 532.347 17.4489C532.535 17.2102 532.629 16.9318 532.629 16.6136C532.629 16.3239 532.548 16.0881 532.386 15.9062C532.224 15.7244 532.011 15.5767 531.746 15.4631C531.482 15.3494 531.197 15.25 530.89 15.1648L529.816 14.858C529.134 14.6619 528.594 14.3821 528.197 14.0185C527.799 13.6548 527.6 13.179 527.6 12.5909C527.6 12.1023 527.732 11.6761 527.996 11.3125C528.263 10.946 528.621 10.6619 529.07 10.4602C529.522 10.2557 530.026 10.1534 530.583 10.1534C531.146 10.1534 531.646 10.2543 532.083 10.456C532.521 10.6548 532.867 10.9276 533.123 11.2741C533.381 11.6207 533.518 12.0142 533.532 12.4545H532.509ZM535.252 19V12.4545H536.258V19H535.252ZM535.764 11.3636C535.568 11.3636 535.399 11.2969 535.257 11.1634C535.118 11.0298 535.048 10.8693 535.048 10.6818C535.048 10.4943 535.118 10.3338 535.257 10.2003C535.399 10.0668 535.568 10 535.764 10C535.96 10 536.127 10.0668 536.267 10.2003C536.409 10.3338 536.48 10.4943 536.48 10.6818C536.48 10.8693 536.409 11.0298 536.267 11.1634C536.127 11.2969 535.96 11.3636 535.764 11.3636ZM540.947 12.4545V13.3068H537.555V12.4545H540.947ZM538.543 10.8864H539.549V17.125C539.549 17.4091 539.59 17.6222 539.673 17.7642C539.758 17.9034 539.866 17.9972 539.996 18.0455C540.13 18.0909 540.271 18.1136 540.418 18.1136C540.529 18.1136 540.62 18.108 540.691 18.0966C540.762 18.0824 540.819 18.071 540.862 18.0625L541.066 18.9659C540.998 18.9915 540.903 19.017 540.781 19.0426C540.658 19.071 540.504 19.0852 540.316 19.0852C540.032 19.0852 539.754 19.0241 539.481 18.902C539.211 18.7798 538.987 18.5938 538.808 18.3438C538.631 18.0938 538.543 17.7784 538.543 17.3977V10.8864ZM545.134 19.1364C544.503 19.1364 543.959 18.9972 543.501 18.7188C543.047 18.4375 542.696 18.0455 542.449 17.5426C542.205 17.0369 542.082 16.4489 542.082 15.7784C542.082 15.108 542.205 14.517 542.449 14.0057C542.696 13.4915 543.04 13.0909 543.48 12.804C543.923 12.5142 544.44 12.3693 545.031 12.3693C545.372 12.3693 545.709 12.4261 546.041 12.5398C546.374 12.6534 546.676 12.8381 546.949 13.0938C547.222 13.3466 547.439 13.6818 547.601 14.0994C547.763 14.517 547.844 15.0312 547.844 15.642V16.0682H542.798V15.1989H546.821C546.821 14.8295 546.747 14.5 546.599 14.2102C546.455 13.9205 546.247 13.6918 545.977 13.5241C545.71 13.3565 545.395 13.2727 545.031 13.2727C544.631 13.2727 544.284 13.3722 543.991 13.571C543.702 13.767 543.479 14.0227 543.322 14.3381C543.166 14.6534 543.088 14.9915 543.088 15.3523V15.9318C543.088 16.4261 543.173 16.8452 543.344 17.1889C543.517 17.5298 543.757 17.7898 544.064 17.9688C544.371 18.1449 544.727 18.233 545.134 18.233C545.398 18.233 545.636 18.196 545.849 18.1222C546.065 18.0455 546.251 17.9318 546.408 17.7812C546.564 17.6278 546.685 17.4375 546.77 17.2102L547.741 17.483C547.639 17.8125 547.467 18.1023 547.226 18.3523C546.984 18.5994 546.686 18.7926 546.331 18.9318C545.976 19.0682 545.577 19.1364 545.134 19.1364Z" fill="black"/>
<rect x="472.5" y="77.5" width="88" height="26" rx="2.5" fill="#8EBEC9"/>
<rect x="472.5" y="77.5" width="88" height="26" rx="2.5" stroke="black"/>
<rect x="476.25" y="81.25" width="80.5" height="18.5" rx="1.75" fill="white"/>
<rect x="476.25" y="81.25" width="80.5" height="18.5" rx="1.75" stroke="#8D8D8D" stroke-width="0.5"/>
<path d="M484.852 95.1193C484.29 95.1193 483.788 95.0227 483.348 94.8295C482.911 94.6364 482.563 94.3679 482.304 94.0241C482.048 93.6776 481.909 93.2756 481.886 92.8182H482.96C482.983 93.0994 483.08 93.3423 483.25 93.5469C483.42 93.7486 483.643 93.9048 483.919 94.0156C484.195 94.1264 484.5 94.1818 484.835 94.1818C485.21 94.1818 485.543 94.1165 485.832 93.9858C486.122 93.8551 486.349 93.6733 486.514 93.4403C486.679 93.2074 486.761 92.9375 486.761 92.6307C486.761 92.3097 486.682 92.027 486.523 91.7827C486.364 91.5355 486.131 91.3423 485.824 91.2031C485.517 91.0639 485.142 90.9943 484.699 90.9943H484V90.0568H484.699C485.045 90.0568 485.349 89.9943 485.611 89.8693C485.875 89.7443 486.081 89.5682 486.229 89.3409C486.379 89.1136 486.455 88.8466 486.455 88.5398C486.455 88.2443 486.389 87.9872 486.259 87.7685C486.128 87.5497 485.943 87.3793 485.705 87.2571C485.469 87.1349 485.19 87.0739 484.869 87.0739C484.568 87.0739 484.284 87.1293 484.017 87.2401C483.753 87.348 483.537 87.5057 483.369 87.7131C483.202 87.9176 483.111 88.1648 483.097 88.4545H482.074C482.091 87.9972 482.229 87.5966 482.487 87.2528C482.746 86.9062 483.084 86.6364 483.501 86.4432C483.922 86.25 484.384 86.1534 484.886 86.1534C485.426 86.1534 485.889 86.2628 486.276 86.4815C486.662 86.6974 486.959 86.983 487.166 87.3381C487.374 87.6932 487.477 88.0767 487.477 88.4886C487.477 88.9801 487.348 89.3991 487.089 89.7457C486.834 90.0923 486.486 90.3324 486.045 90.4659V90.5341C486.597 90.625 487.027 90.8594 487.337 91.2372C487.646 91.6122 487.801 92.0767 487.801 92.6307C487.801 93.1051 487.672 93.5312 487.413 93.9091C487.158 94.2841 486.808 94.5795 486.365 94.7955C485.922 95.0114 485.418 95.1193 484.852 95.1193ZM492.391 95H489.697V86.2727H492.51C493.357 86.2727 494.081 86.4474 494.683 86.7969C495.286 87.1435 495.747 87.642 496.068 88.2926C496.389 88.9403 496.55 89.7159 496.55 90.6193C496.55 91.5284 496.388 92.3111 496.064 92.9673C495.74 93.6207 495.268 94.1236 494.649 94.4759C494.03 94.8253 493.277 95 492.391 95ZM490.754 94.0625H492.322C493.044 94.0625 493.642 93.9233 494.116 93.6449C494.591 93.3665 494.945 92.9702 495.178 92.456C495.411 91.9418 495.527 91.3295 495.527 90.6193C495.527 89.9148 495.412 89.3082 495.182 88.7997C494.952 88.2884 494.608 87.8963 494.151 87.6236C493.693 87.348 493.124 87.2102 492.442 87.2102H490.754V94.0625ZM506.197 89.9205L505.294 90.1761C505.237 90.0256 505.153 89.8793 505.043 89.7372C504.935 89.5923 504.787 89.473 504.599 89.3793C504.412 89.2855 504.172 89.2386 503.879 89.2386C503.479 89.2386 503.145 89.331 502.878 89.5156C502.614 89.6974 502.482 89.929 502.482 90.2102C502.482 90.4602 502.572 90.6577 502.754 90.8026C502.936 90.9474 503.22 91.0682 503.607 91.1648L504.578 91.4034C505.163 91.5455 505.599 91.7628 505.886 92.0554C506.173 92.3452 506.317 92.7187 506.317 93.1761C506.317 93.5511 506.209 93.8864 505.993 94.1818C505.78 94.4773 505.482 94.7102 505.098 94.8807C504.714 95.0511 504.268 95.1364 503.76 95.1364C503.092 95.1364 502.54 94.9915 502.102 94.7017C501.665 94.4119 501.388 93.9886 501.271 93.4318L502.226 93.1932C502.317 93.5455 502.489 93.8097 502.741 93.9858C502.997 94.1619 503.331 94.25 503.743 94.25C504.212 94.25 504.584 94.1506 504.859 93.9517C505.138 93.75 505.277 93.5085 505.277 93.2273C505.277 93 505.197 92.8097 505.038 92.6562C504.879 92.5 504.635 92.3835 504.305 92.3068L503.214 92.0511C502.615 91.9091 502.175 91.6889 501.893 91.3906C501.615 91.0895 501.476 90.7131 501.476 90.2614C501.476 89.892 501.58 89.5653 501.787 89.2812C501.997 88.9972 502.283 88.7741 502.643 88.6122C503.007 88.4503 503.419 88.3693 503.879 88.3693C504.527 88.3693 505.036 88.5114 505.405 88.7955C505.777 89.0795 506.041 89.4545 506.197 89.9205ZM510.677 88.4545V89.3068H507.285V88.4545H510.677ZM508.274 86.8864H509.279V93.125C509.279 93.4091 509.321 93.6222 509.403 93.7642C509.488 93.9034 509.596 93.9972 509.727 94.0455C509.86 94.0909 510.001 94.1136 510.149 94.1136C510.26 94.1136 510.35 94.108 510.422 94.0966C510.493 94.0824 510.549 94.071 510.592 94.0625L510.797 94.9659C510.728 94.9915 510.633 95.017 510.511 95.0426C510.389 95.071 510.234 95.0852 510.047 95.0852C509.762 95.0852 509.484 95.0241 509.211 94.902C508.941 94.7798 508.717 94.5938 508.538 94.3438C508.362 94.0938 508.274 93.7784 508.274 93.3977V86.8864ZM512.19 95V88.4545H513.162V89.4432H513.23C513.349 89.1193 513.565 88.8565 513.877 88.6548C514.19 88.4531 514.542 88.3523 514.934 88.3523C515.008 88.3523 515.1 88.3537 515.211 88.3565C515.322 88.3594 515.406 88.3636 515.463 88.3693V89.392C515.429 89.3835 515.35 89.3707 515.228 89.3537C515.109 89.3338 514.983 89.3239 514.849 89.3239C514.531 89.3239 514.247 89.3906 513.997 89.5241C513.75 89.6548 513.554 89.8366 513.409 90.0696C513.267 90.2997 513.196 90.5625 513.196 90.858V95H512.19ZM520.78 92.3239V88.4545H521.786V95H520.78V93.892H520.712C520.558 94.2244 520.32 94.5071 519.996 94.7401C519.672 94.9702 519.263 95.0852 518.768 95.0852C518.359 95.0852 517.996 94.9957 517.678 94.8168C517.359 94.6349 517.109 94.3622 516.928 93.9986C516.746 93.6321 516.655 93.1705 516.655 92.6136V88.4545H517.661V92.5455C517.661 93.0227 517.794 93.4034 518.061 93.6875C518.331 93.9716 518.675 94.1136 519.092 94.1136C519.342 94.1136 519.597 94.0497 519.855 93.9219C520.116 93.794 520.335 93.598 520.511 93.3338C520.69 93.0696 520.78 92.733 520.78 92.3239ZM526.287 95.1364C525.673 95.1364 525.145 94.9915 524.701 94.7017C524.258 94.4119 523.917 94.0128 523.679 93.5043C523.44 92.9957 523.321 92.4148 523.321 91.7614C523.321 91.0966 523.443 90.5099 523.687 90.0014C523.934 89.4901 524.278 89.0909 524.718 88.804C525.162 88.5142 525.679 88.3693 526.27 88.3693C526.73 88.3693 527.145 88.4545 527.514 88.625C527.883 88.7955 528.186 89.0341 528.422 89.3409C528.657 89.6477 528.804 90.0057 528.86 90.4148H527.855C527.778 90.1165 527.608 89.8523 527.343 89.6222C527.082 89.3892 526.73 89.2727 526.287 89.2727C525.895 89.2727 525.551 89.375 525.255 89.5795C524.963 89.7812 524.734 90.0668 524.569 90.4361C524.407 90.8026 524.326 91.233 524.326 91.7273C524.326 92.233 524.406 92.6733 524.565 93.0483C524.727 93.4233 524.954 93.7145 525.247 93.9219C525.542 94.1293 525.889 94.233 526.287 94.233C526.548 94.233 526.785 94.1875 526.998 94.0966C527.211 94.0057 527.392 93.875 527.539 93.7045C527.687 93.5341 527.792 93.3295 527.855 93.0909H528.86C528.804 93.4773 528.663 93.8253 528.439 94.1349C528.217 94.4418 527.923 94.6861 527.556 94.8679C527.193 95.0469 526.77 95.1364 526.287 95.1364ZM533.177 88.4545V89.3068H529.785V88.4545H533.177ZM530.774 86.8864H531.779V93.125C531.779 93.4091 531.821 93.6222 531.903 93.7642C531.988 93.9034 532.096 93.9972 532.227 94.0455C532.36 94.0909 532.501 94.1136 532.649 94.1136C532.76 94.1136 532.85 94.108 532.922 94.0966C532.993 94.0824 533.049 94.071 533.092 94.0625L533.297 94.9659C533.228 94.9915 533.133 95.017 533.011 95.0426C532.889 95.071 532.734 95.0852 532.547 95.0852C532.262 95.0852 531.984 95.0241 531.711 94.902C531.441 94.7798 531.217 94.5938 531.038 94.3438C530.862 94.0938 530.774 93.7784 530.774 93.3977V86.8864ZM538.815 92.3239V88.4545H539.821V95H538.815V93.892H538.747C538.593 94.2244 538.355 94.5071 538.031 94.7401C537.707 94.9702 537.298 95.0852 536.804 95.0852C536.395 95.0852 536.031 94.9957 535.713 94.8168C535.395 94.6349 535.145 94.3622 534.963 93.9986C534.781 93.6321 534.69 93.1705 534.69 92.6136V88.4545H535.696V92.5455C535.696 93.0227 535.829 93.4034 536.096 93.6875C536.366 93.9716 536.71 94.1136 537.127 94.1136C537.377 94.1136 537.632 94.0497 537.89 93.9219C538.152 93.794 538.37 93.598 538.547 93.3338C538.725 93.0696 538.815 92.733 538.815 92.3239ZM541.663 95V88.4545H542.634V89.4432H542.702C542.822 89.1193 543.038 88.8565 543.35 88.6548C543.663 88.4531 544.015 88.3523 544.407 88.3523C544.481 88.3523 544.573 88.3537 544.684 88.3565C544.795 88.3594 544.879 88.3636 544.935 88.3693V89.392C544.901 89.3835 544.823 89.3707 544.701 89.3537C544.582 89.3338 544.455 89.3239 544.322 89.3239C544.004 89.3239 543.719 89.3906 543.469 89.5241C543.222 89.6548 543.026 89.8366 542.881 90.0696C542.739 90.2997 542.668 90.5625 542.668 90.858V95H541.663ZM548.673 95.1364C548.042 95.1364 547.498 94.9972 547.04 94.7188C546.586 94.4375 546.235 94.0455 545.988 93.5426C545.744 93.0369 545.621 92.4489 545.621 91.7784C545.621 91.108 545.744 90.517 545.988 90.0057C546.235 89.4915 546.579 89.0909 547.019 88.804C547.462 88.5142 547.979 88.3693 548.57 88.3693C548.911 88.3693 549.248 88.4261 549.58 88.5398C549.913 88.6534 550.215 88.8381 550.488 89.0938C550.761 89.3466 550.978 89.6818 551.14 90.0994C551.302 90.517 551.383 91.0312 551.383 91.642V92.0682H546.337V91.1989H550.36C550.36 90.8295 550.286 90.5 550.138 90.2102C549.994 89.9205 549.786 89.6918 549.516 89.5241C549.249 89.3565 548.934 89.2727 548.57 89.2727C548.17 89.2727 547.823 89.3722 547.531 89.571C547.241 89.767 547.018 90.0227 546.862 90.3381C546.705 90.6534 546.627 90.9915 546.627 91.3523V91.9318C546.627 92.4261 546.712 92.8452 546.883 93.1889C547.056 93.5298 547.296 93.7898 547.603 93.9688C547.91 94.1449 548.266 94.233 548.673 94.233C548.937 94.233 549.175 94.196 549.388 94.1222C549.604 94.0455 549.79 93.9318 549.947 93.7812C550.103 93.6278 550.224 93.4375 550.309 93.2102L551.281 93.483C551.178 93.8125 551.006 94.1023 550.765 94.3523C550.523 94.5994 550.225 94.7926 549.87 94.9318C549.515 95.0682 549.116 95.1364 548.673 95.1364Z" fill="black"/>
<rect x="0.5" y="76.5" width="105" height="27" rx="2.5" fill="#EAC293"/>
<rect x="0.5" y="76.5" width="105" height="27" rx="2.5" stroke="black"/>
<rect x="4.25" y="80.25" width="19.5" height="19.5" rx="1.75" fill="white"/>
<rect x="4.25" y="80.25" width="19.5" height="19.5" rx="1.75" stroke="#8D8D8D" stroke-width="0.5"/>
<path d="M13.448 94.144C12.8 94.144 12.224 93.976 11.72 93.64C11.216 93.304 10.82 92.828 10.532 92.212C10.244 91.588 10.1 90.856 10.1 90.016C10.1 89.12 10.252 88.332 10.556 87.652C10.86 86.964 11.296 86.428 11.864 86.044C12.44 85.652 13.132 85.456 13.94 85.456C14.46 85.456 14.924 85.52 15.332 85.648C15.74 85.776 16.124 85.94 16.484 86.14L16.064 87.088C15.728 86.904 15.384 86.752 15.032 86.632C14.688 86.512 14.304 86.452 13.88 86.452C13.376 86.452 12.928 86.588 12.536 86.86C12.144 87.124 11.832 87.516 11.6 88.036C11.376 88.556 11.264 89.192 11.264 89.944C11.264 90.616 11.368 91.192 11.576 91.672C11.784 92.144 12.072 92.508 12.44 92.764C12.808 93.02 13.232 93.148 13.712 93.148C14.16 93.148 14.556 93.056 14.9 92.872C15.252 92.68 15.528 92.484 15.728 92.284V90.448H13.988V89.548H16.808V94H15.8V93.16C15.52 93.408 15.18 93.636 14.78 93.844C14.38 94.044 13.936 94.144 13.448 94.144Z" fill="black"/>
<rect x="30.25" y="80.25" width="19.5" height="19.5" rx="1.75" fill="white"/>
<rect x="30.25" y="80.25" width="19.5" height="19.5" rx="1.75" stroke="#8D8D8D" stroke-width="0.5"/>
<path d="M42.352 94.12L41.416 91.72H37.528L36.592 94.096L35.62 93.7L38.908 85.6H40.156L43.396 93.7L42.352 94.12ZM37.888 90.76H41.044L39.472 86.728L37.888 90.76Z" fill="black"/>
<rect x="56.25" y="80.25" width="19.5" height="19.5" rx="1.75" fill="white"/>
<rect x="56.25" y="80.25" width="19.5" height="19.5" rx="1.75" stroke="#8D8D8D" stroke-width="0.5"/>
<path d="M64.788 94.096C64.332 94.096 63.932 94.084 63.588 94.06C63.252 94.036 62.916 94.008 62.58 93.976V85.624C62.956 85.584 63.324 85.556 63.684 85.54C64.044 85.516 64.456 85.504 64.92 85.504C65.64 85.504 66.26 85.616 66.78 85.84C67.308 86.064 67.74 86.372 68.076 86.764C68.42 87.156 68.672 87.612 68.832 88.132C69 88.644 69.084 89.196 69.084 89.788C69.084 90.372 69 90.924 68.832 91.444C68.664 91.964 68.404 92.424 68.052 92.824C67.708 93.216 67.264 93.528 66.72 93.76C66.184 93.984 65.54 94.096 64.788 94.096ZM64.824 93.1C65.544 93.1 66.132 92.96 66.588 92.68C67.044 92.4 67.38 92.012 67.596 91.516C67.812 91.012 67.92 90.436 67.92 89.788C67.92 89.212 67.812 88.672 67.596 88.168C67.38 87.664 67.048 87.26 66.6 86.956C66.152 86.644 65.58 86.488 64.884 86.488C64.652 86.488 64.44 86.496 64.248 86.512C64.056 86.52 63.88 86.532 63.72 86.548V93.04C63.888 93.064 64.064 93.08 64.248 93.088C64.432 93.096 64.624 93.1 64.824 93.1Z" fill="black"/>
<rect x="82.25" y="80.25" width="19.5" height="19.5" rx="1.75" fill="white"/>
<rect x="82.25" y="80.25" width="19.5" height="19.5" rx="1.75" stroke="#8D8D8D" stroke-width="0.5"/>
<path d="M91.08 94V85.6H92.22V94H91.08Z" fill="black"/>
<rect x="0.5" y="114.5" width="105" height="27" rx="2.5" fill="#EAC293"/>
<rect x="0.5" y="114.5" width="105" height="27" rx="2.5" stroke="black"/>
<rect x="4.25" y="118.25" width="19.5" height="19.5" rx="1.75" fill="white"/>
<rect x="4.25" y="118.25" width="19.5" height="19.5" rx="1.75" stroke="#8D8D8D" stroke-width="0.5"/>
<path d="M16.352 132.12L15.416 129.72H11.528L10.592 132.096L9.62 131.7L12.908 123.6H14.156L17.396 131.7L16.352 132.12ZM11.888 128.76H15.044L13.472 124.728L11.888 128.76Z" fill="black"/>
<rect x="30.25" y="118.25" width="19.5" height="19.5" rx="1.75" fill="white"/>
<rect x="30.25" y="118.25" width="19.5" height="19.5" rx="1.75" stroke="#8D8D8D" stroke-width="0.5"/>
<path d="M39.036 132V128.808L36.12 124.068L37.08 123.492L39.648 127.752L42.168 123.54L43.068 124.068L40.176 128.808V132H39.036Z" fill="black"/>
<rect x="56.25" y="118.25" width="19.5" height="19.5" rx="1.75" fill="white"/>
<rect x="56.25" y="118.25" width="19.5" height="19.5" rx="1.75" stroke="#8D8D8D" stroke-width="0.5"/>
<path d="M63.58 132V123.6H64.72V130.98H68.572V132H63.58Z" fill="black"/>
<rect x="82.25" y="118.25" width="19.5" height="19.5" rx="1.75" fill="white"/>
<rect x="82.25" y="118.25" width="19.5" height="19.5" rx="1.75" stroke="#8D8D8D" stroke-width="0.5"/>
<path d="M91.204 132L88.12 123.9L89.236 123.468L91.876 130.752L94.528 123.504L95.56 123.9L92.488 132H91.204Z" fill="black"/>
<rect x="132.5" y="152.5" width="95" height="27" rx="2.5" fill="#EA9993"/>
<rect x="132.5" y="152.5" width="95" height="27" rx="2.5" stroke="black"/>
<rect x="136.25" y="156.25" width="87.5" height="19.5" rx="1.75" fill="white"/>
<rect x="136.25" y="156.25" width="87.5" height="19.5" rx="1.75" stroke="#8D8D8D" stroke-width="0.5"/>
<path d="M142.08 170V161.6H143.592L147.3 168.584V161.6H148.38V170H146.892L143.16 163.064V170H142.08ZM153.769 170.144C153.041 170.144 152.397 169.972 151.837 169.628C151.277 169.276 150.841 168.78 150.529 168.14C150.217 167.492 150.061 166.724 150.061 165.836C150.061 164.98 150.217 164.224 150.529 163.568C150.849 162.904 151.297 162.388 151.873 162.02C152.457 161.644 153.137 161.456 153.913 161.456C154.313 161.456 154.677 161.496 155.005 161.576C155.333 161.648 155.641 161.752 155.929 161.888L155.581 162.848C155.333 162.728 155.077 162.632 154.813 162.56C154.557 162.488 154.253 162.452 153.901 162.452C153.389 162.452 152.929 162.584 152.521 162.848C152.121 163.112 151.805 163.492 151.573 163.988C151.341 164.484 151.225 165.084 151.225 165.788C151.225 166.46 151.337 167.048 151.561 167.552C151.793 168.056 152.109 168.448 152.509 168.728C152.917 169.008 153.381 169.148 153.901 169.148C154.293 169.148 154.633 169.1 154.921 169.004C155.209 168.908 155.489 168.784 155.761 168.632L156.109 169.58C155.813 169.74 155.473 169.876 155.089 169.988C154.713 170.092 154.273 170.144 153.769 170.144ZM160.472 170.144C159.744 170.144 159.1 169.972 158.54 169.628C157.98 169.276 157.544 168.78 157.232 168.14C156.92 167.492 156.764 166.724 156.764 165.836C156.764 164.98 156.92 164.224 157.232 163.568C157.552 162.904 158 162.388 158.576 162.02C159.16 161.644 159.84 161.456 160.616 161.456C161.016 161.456 161.38 161.496 161.708 161.576C162.036 161.648 162.344 161.752 162.632 161.888L162.284 162.848C162.036 162.728 161.78 162.632 161.516 162.56C161.26 162.488 160.956 162.452 160.604 162.452C160.092 162.452 159.632 162.584 159.224 162.848C158.824 163.112 158.508 163.492 158.276 163.988C158.044 164.484 157.928 165.084 157.928 165.788C157.928 166.46 158.04 167.048 158.264 167.552C158.496 168.056 158.812 168.448 159.212 168.728C159.62 169.008 160.084 169.148 160.604 169.148C160.996 169.148 161.336 169.1 161.624 169.004C161.912 168.908 162.192 168.784 162.464 168.632L162.812 169.58C162.516 169.74 162.176 169.876 161.792 169.988C161.416 170.092 160.976 170.144 160.472 170.144ZM164.369 170V161.6H165.881L169.589 168.584V161.6H170.669V170H169.181L165.449 163.064V170H164.369ZM176.058 170.144C175.33 170.144 174.686 169.972 174.126 169.628C173.566 169.276 173.13 168.78 172.818 168.14C172.506 167.492 172.35 166.724 172.35 165.836C172.35 164.98 172.506 164.224 172.818 163.568C173.138 162.904 173.586 162.388 174.162 162.02C174.746 161.644 175.426 161.456 176.202 161.456C176.602 161.456 176.966 161.496 177.294 161.576C177.622 161.648 177.93 161.752 178.218 161.888L177.87 162.848C177.622 162.728 177.366 162.632 177.102 162.56C176.846 162.488 176.542 162.452 176.19 162.452C175.678 162.452 175.218 162.584 174.81 162.848C174.41 163.112 174.094 163.492 173.862 163.988C173.63 164.484 173.514 165.084 173.514 165.788C173.514 166.46 173.626 167.048 173.85 167.552C174.082 168.056 174.398 168.448 174.798 168.728C175.206 169.008 175.67 169.148 176.19 169.148C176.582 169.148 176.922 169.1 177.21 169.004C177.498 168.908 177.778 168.784 178.05 168.632L178.398 169.58C178.102 169.74 177.762 169.876 177.378 169.988C177.002 170.092 176.562 170.144 176.058 170.144ZM182.761 170.144C182.033 170.144 181.389 169.972 180.829 169.628C180.269 169.276 179.833 168.78 179.521 168.14C179.209 167.492 179.053 166.724 179.053 165.836C179.053 164.98 179.209 164.224 179.521 163.568C179.841 162.904 180.289 162.388 180.865 162.02C181.449 161.644 182.129 161.456 182.905 161.456C183.305 161.456 183.669 161.496 183.997 161.576C184.325 161.648 184.633 161.752 184.921 161.888L184.573 162.848C184.325 162.728 184.069 162.632 183.805 162.56C183.549 162.488 183.245 162.452 182.893 162.452C182.381 162.452 181.921 162.584 181.513 162.848C181.113 163.112 180.797 163.492 180.565 163.988C180.333 164.484 180.217 165.084 180.217 165.788C180.217 166.46 180.329 167.048 180.553 167.552C180.785 168.056 181.101 168.448 181.501 168.728C181.909 169.008 182.373 169.148 182.893 169.148C183.285 169.148 183.625 169.1 183.913 169.004C184.201 168.908 184.481 168.784 184.753 168.632L185.101 169.58C184.805 169.74 184.465 169.876 184.081 169.988C183.705 170.092 183.265 170.144 182.761 170.144ZM187.846 171.476C187.35 170.596 186.962 169.724 186.682 168.86C186.402 167.988 186.262 167.088 186.262 166.16C186.262 165.16 186.402 164.236 186.682 163.388C186.97 162.532 187.358 161.684 187.846 160.844L188.482 161.204C188.186 161.876 187.93 162.628 187.714 163.46C187.506 164.284 187.402 165.184 187.402 166.16C187.402 167.128 187.506 168.024 187.714 168.848C187.93 169.672 188.186 170.428 188.482 171.116L187.846 171.476ZM190.412 165.26V164.312H195.14V165.26H190.412ZM190.412 167.444V166.496H195.14V167.444H190.412ZM200.931 170.144C200.307 170.144 199.751 170.032 199.263 169.808C198.775 169.576 198.359 169.264 198.015 168.872C197.679 168.472 197.419 168.008 197.235 167.48C197.059 166.952 196.971 166.388 196.971 165.788C196.971 164.964 197.127 164.228 197.439 163.58C197.759 162.924 198.215 162.408 198.807 162.032C199.399 161.648 200.107 161.456 200.931 161.456C201.547 161.456 202.099 161.568 202.587 161.792C203.083 162.016 203.503 162.328 203.847 162.728C204.191 163.128 204.451 163.588 204.627 164.108C204.811 164.628 204.903 165.188 204.903 165.788C204.903 166.388 204.811 166.952 204.627 167.48C204.451 168.008 204.191 168.472 203.847 168.872C203.503 169.264 203.087 169.576 202.599 169.808C202.111 170.032 201.555 170.144 200.931 170.144ZM200.931 169.16C201.547 169.16 202.063 169.012 202.479 168.716C202.895 168.42 203.207 168.02 203.415 167.516C203.631 167.004 203.739 166.428 203.739 165.788C203.739 165.356 203.675 164.94 203.547 164.54C203.419 164.14 203.235 163.784 202.995 163.472C202.755 163.152 202.459 162.9 202.107 162.716C201.763 162.532 201.371 162.44 200.931 162.44C200.347 162.44 199.843 162.588 199.419 162.884C199.003 163.18 198.683 163.58 198.459 164.084C198.243 164.588 198.135 165.156 198.135 165.788C198.135 166.22 198.195 166.64 198.315 167.048C198.443 167.448 198.627 167.808 198.867 168.128C199.107 168.448 199.399 168.7 199.743 168.884C200.095 169.068 200.491 169.16 200.931 169.16ZM206.832 171.476L206.196 171.116C206.5 170.428 206.756 169.672 206.964 168.848C207.172 168.024 207.276 167.128 207.276 166.16C207.276 165.184 207.172 164.284 206.964 163.46C206.756 162.628 206.5 161.876 206.196 161.204L206.832 160.844C207.328 161.684 207.716 162.532 207.996 163.388C208.276 164.236 208.416 165.16 208.416 166.16C208.416 167.088 208.276 167.988 207.996 168.86C207.716 169.724 207.328 170.596 206.832 171.476ZM213.658 170.144C213.034 170.144 212.478 170.032 211.99 169.808C211.502 169.576 211.086 169.264 210.742 168.872C210.406 168.472 210.146 168.008 209.962 167.48C209.786 166.952 209.698 166.388 209.698 165.788C209.698 164.964 209.854 164.228 210.166 163.58C210.486 162.924 210.942 162.408 211.534 162.032C212.126 161.648 212.834 161.456 213.658 161.456C214.274 161.456 214.826 161.568 215.314 161.792C215.81 162.016 216.23 162.328 216.574 162.728C216.918 163.128 217.178 163.588 217.354 164.108C217.538 164.628 217.63 165.188 217.63 165.788C217.63 166.388 217.538 166.952 217.354 167.48C217.178 168.008 216.918 168.472 216.574 168.872C216.23 169.264 215.814 169.576 215.326 169.808C214.838 170.032 214.282 170.144 213.658 170.144ZM213.658 169.16C214.274 169.16 214.79 169.012 215.206 168.716C215.622 168.42 215.934 168.02 216.142 167.516C216.358 167.004 216.466 166.428 216.466 165.788C216.466 165.356 216.402 164.94 216.274 164.54C216.146 164.14 215.962 163.784 215.722 163.472C215.482 163.152 215.186 162.9 214.834 162.716C214.49 162.532 214.098 162.44 213.658 162.44C213.074 162.44 212.57 162.588 212.146 162.884C211.73 163.18 211.41 163.58 211.186 164.084C210.97 164.588 210.862 165.156 210.862 165.788C210.862 166.22 210.922 166.64 211.042 167.048C211.17 167.448 211.354 167.808 211.594 168.128C211.834 168.448 212.126 168.7 212.47 168.884C212.822 169.068 213.218 169.16 213.658 169.16Z" fill="black"/>
<rect x="132.5" y="0.5" width="105" height="27" rx="2.5" fill="#EAC293"/>
<rect x="132.5" y="0.5" width="105" height="27" rx="2.5" stroke="black"/>
<rect x="136.25" y="4.25" width="19.5" height="19.5" rx="1.75" fill="white"/>
<rect x="136.25" y="4.25" width="19.5" height="19.5" rx="1.75" stroke="#8D8D8D" stroke-width="0.5"/>
<path d="M143.58 18V9.6H148.62V10.584H144.72V13.14H148.08V14.1H144.72V17.016H148.62V18H143.58Z" fill="black"/>
<rect x="162.25" y="4.25" width="19.5" height="19.5" rx="1.75" fill="white"/>
<rect x="162.25" y="4.25" width="19.5" height="19.5" rx="1.75" stroke="#8D8D8D" stroke-width="0.5"/>
<path d="M169.58 18V9.6H174.56V10.584H170.72V13.152H173.924V14.088H170.72V18H169.58Z" fill="black"/>
<rect x="188.25" y="4.25" width="19.5" height="19.5" rx="1.75" fill="white"/>
<rect x="188.25" y="4.25" width="19.5" height="19.5" rx="1.75" stroke="#8D8D8D" stroke-width="0.5"/>
<path d="M195.58 18V9.6H200.62V10.584H196.72V13.14H200.08V14.1H196.72V17.016H200.62V18H195.58Z" fill="black"/>
<rect x="214.25" y="4.25" width="19.5" height="19.5" rx="1.75" fill="white"/>
<rect x="214.25" y="4.25" width="19.5" height="19.5" rx="1.75" stroke="#8D8D8D" stroke-width="0.5"/>
<path d="M223.08 18V9.6H224.22V18H223.08Z" fill="black"/>
<path d="M278 14L273 11.1132V16.8868L278 14ZM245 14H245.5V12H245H244.5V14H245ZM245 14H244.5V16H245H245.5V14H245ZM245 14V14.5H273.5V14V13.5H245V14Z" fill="black"/>
<path d="M278 167L273 164.113V169.887L278 167ZM235 167H235.5V165H235H234.5V167H235ZM235 167H234.5V169H235H235.5V167H235ZM235 167V167.5H273.5V167V166.5H235V167Z" fill="black"/>
<path d="M462 14L457 11.1132V16.8868L462 14ZM422 14H422.5V12H422H421.5V14H422ZM422 14H421.5V16H422H422.5V14H422ZM422 14V14.5H457.5V14V13.5H422V14Z" fill="black"/>
<path d="M462 52L457 49.1132V54.8868L462 52ZM422 52H422.5V50H422H421.5V52H422ZM422 52H421.5V54H422H422.5V52H422ZM422 52V52.5H457.5V52V51.5H422V52Z" fill="black"/>
<path d="M462 166L457 163.113V168.887L462 166ZM422 166H422.5V164H422H421.5V166H422ZM422 166H421.5V168H422H422.5V166H422ZM422 166V166.5H457.5V166V165.5H422V166Z" fill="black"/>
<path d="M462 90L457 87.1132V92.8868L462 90ZM422 90H422.5V88H422H421.5V90H422ZM422 90H421.5V92H422H422.5V90H422ZM422 90V90.5H457.5V90V89.5H422V90Z" fill="black"/>
<path d="M462 128L457 125.113V130.887L462 128ZM422 128H422.5V126H422H421.5V128H422ZM422 128H421.5V130H422H422.5V128H422ZM422 128V128.5H457.5V128V127.5H422V128Z" fill="black"/>
<path d="M278 52.5L273 49.6132V55.3868L278 52.5ZM113 52.5H113.5V51H113H112.5V52.5H113ZM113 52.5H112.5V54H113H113.5V52.5H113ZM113 52.5V53H273.5V52.5V52H113V52.5Z" fill="black"/>
<path d="M278 90.5L273 87.6132V93.3868L278 90.5ZM113 90.5H113.5V89H113H112.5V90.5H113ZM113 90.5H112.5V92H113H113.5V90.5H113ZM113 90.5V91H273.5V90.5V90H113V90.5Z" fill="black"/>
<path d="M278 128.5L273 125.613V131.387L278 128.5ZM113 128.5H113.5V127H113H112.5V128.5H113ZM113 128.5H112.5V130H113H113.5V128.5H113ZM113 128.5V129H273.5V128.5V128H113V128.5Z" fill="black"/>
<path d="M118.984 163V169M116 166H121.968" stroke="black" stroke-linecap="round" stroke-linejoin="round"/>
<path d="M118.984 11V17M116 14H121.968" stroke="black" stroke-linecap="round" stroke-linejoin="round"/>
</svg>
